<svg width="200" height="200" viewBox="0 0 200 200" fill="none" xmlns="http://www.w3.org/2000/svg">
<g id="mingcute:christmas-ball-line" clip-path="url(#clip0_18_3633)">
<g id="Group">
<path id="Vector" fill-rule="evenodd" clip-rule="evenodd" d="M100 16.6667C101.547 16.6675 103.064 17.099 104.379 17.913C105.695 18.7269 106.758 19.891 107.45 21.275L114.15 34.6667C128.122 37.3509 141.042 43.9539 151.402 53.7048C161.763 63.4557 169.136 75.9524 172.661 89.7361C176.186 103.52 175.718 118.022 171.312 131.55C166.905 145.077 158.742 157.073 147.774 166.135C136.807 175.198 123.488 180.954 109.372 182.732C95.2561 184.51 80.9257 182.236 68.0536 176.176C55.1814 170.116 44.2985 160.519 36.6752 148.506C29.0519 136.494 25.0026 122.561 25 108.333C25.0016 90.8964 31.0769 74.0045 42.1816 60.5608C53.2864 47.1171 68.7271 37.9612 85.85 34.6667L92.55 21.275C93.2416 19.891 94.3048 18.7269 95.6206 17.913C96.9364 17.099 98.4528 16.6675 100 16.6667ZM41.775 104.692C41.2217 113.347 42.6112 122.017 45.8417 130.067C48.1333 130.792 49.3833 131.192 49.5917 131.233C63.4167 134.667 78.5833 133.3 93.0917 123.775L95.1583 122.358C114.742 108.367 135.6 106.183 154.425 110.858C155.858 111.208 157.125 111.567 158.225 111.917C158.767 103.258 157.366 94.5886 154.125 86.5417L150.408 85.3667C136.583 81.9334 121.425 83.3 106.908 92.8334L104.842 94.25C85.2667 108.233 64.4083 110.417 45.575 105.75C44.2979 105.436 43.0306 105.083 41.775 104.692ZM45.2333 88.1917C47.9083 89.0583 49.3667 89.5167 49.5917 89.575C63.4167 93 78.5833 91.6333 93.0917 82.1083L95.1583 80.6917C110.275 69.8917 126.158 66.125 141.283 67.125C134.359 60.1944 125.802 55.1184 116.4 52.3649C106.999 49.6115 97.0549 49.2692 87.486 51.3696C77.9172 53.47 69.031 57.9455 61.6468 64.3835C54.2627 70.8216 48.618 79.015 45.2333 88.2084V88.1917ZM154.783 128.417L150.408 127.033C136.583 123.6 121.425 124.967 106.908 134.5L104.842 135.917C89.7 146.733 73.7917 150.492 58.65 149.475C65.571 156.425 74.1323 161.519 83.5427 164.286C92.9531 167.052 102.909 167.402 112.49 165.304C122.072 163.205 130.97 158.725 138.362 152.278C145.754 145.83 151.402 137.624 154.783 128.417Z" fill="#FFD6D9" fill-opacity="0.5"/>
</g>
</g>
<defs>
<clipPath id="clip0_18_3633">
<rect width="200" height="200" fill="white"/>
</clipPath>
</defs>
</svg>
