<svg width="200" height="200" viewBox="0 0 200 200" fill="none" xmlns="http://www.w3.org/2000/svg">
<g id="tabler:christmas-tree">
<path id="Vector (Stroke)" fill-rule="evenodd" clip-rule="evenodd" d="M93.7744 19.4408C97.0287 16.1864 102.305 16.1864 105.559 19.4408L138.893 52.7741C140.787 54.6682 141.655 57.3574 141.226 60.0015C140.797 62.6456 139.123 64.9223 136.727 66.1202L130.402 69.2829L155.559 94.4408C157.602 96.483 158.441 99.437 157.777 102.248C157.114 105.059 155.042 107.326 152.302 108.239L140.094 112.308L163.893 136.107C166.276 138.491 166.989 142.075 165.699 145.189C164.409 148.303 161.371 150.333 158 150.333H124.667V167C124.667 171.42 122.911 175.66 119.785 178.785C116.66 181.911 112.421 183.667 108 183.667H91.3336C86.9133 183.667 82.6741 181.911 79.5485 178.785C76.4229 175.66 74.6669 171.42 74.6669 167V150.333H41.3336C37.9631 150.333 34.9244 148.303 33.6346 145.189C32.3447 142.075 33.0577 138.491 35.441 136.107L59.24 112.308L47.0317 108.239C44.2917 107.326 42.2201 105.059 41.5565 102.248C40.8929 99.437 41.7321 96.483 43.7744 94.4408L68.9322 69.2829L62.6068 66.1202C60.2109 64.9223 58.5369 62.6456 58.1079 60.0015C57.6788 57.3574 58.5469 54.6682 60.441 52.7741L93.7744 19.4408ZM91.3336 150.333V167H108V150.333H91.3336ZM61.452 133.667L80.5595 114.559C82.6017 112.517 83.4409 109.563 82.7773 106.752C82.1138 103.941 80.0421 101.674 77.3021 100.761L65.0938 96.6915L88.8928 72.8926C90.7869 70.9984 91.6551 68.3092 91.226 65.6651C90.7969 63.021 89.1229 60.7444 86.727 59.5464L80.4016 56.3837L99.6669 37.1184L118.932 56.3837L112.607 59.5464C110.211 60.7444 108.537 63.021 108.108 65.6651C107.679 68.3092 108.547 70.9984 110.441 72.8926L134.24 96.6915L122.032 100.761C119.292 101.674 117.22 103.941 116.557 106.752C115.893 109.563 116.732 112.517 118.774 114.559L137.882 133.667H61.452Z" fill="#FFD6D9" fill-opacity="0.5"/>
</g>
</svg>
