<svg width="200" height="200" viewBox="0 0 200 200" fill="none" xmlns="http://www.w3.org/2000/svg">
<g id="mingcute:father-christmas-line" clip-path="url(#clip0_18_3595)">
<g id="Group">
<path id="Vector" d="M149.225 33.925C154.01 32.7516 159.056 33.3118 163.467 35.5062C167.878 37.7006 171.368 41.3872 173.318 45.9113C175.269 50.4355 175.553 55.5044 174.12 60.2181C172.687 64.9317 169.63 68.9851 165.492 71.6583L166.275 76.6L167.075 79.3917L167.75 82.0583L168.517 85.475L169.033 88.125L169.283 89.5417L169.767 92.5583L169.983 94.1417L170.375 97.4583L170.542 99.1833L170.783 102.742C170.908 105.158 170.95 107.65 170.883 110.183C170.525 123.083 167.158 138.225 155.35 148.067C152.042 150.817 149.175 153.433 146.542 155.933L142.733 159.583C139.208 163.033 135.7 166.525 131.9 169.683C124.042 176.233 115.4 180.883 101.417 183.217C100.485 183.379 99.5319 183.379 98.6 183.217C84.6 180.883 75.9667 176.233 68.1 169.683C66.2084 168.1 64.3834 166.442 62.5917 164.742L57.275 159.583C53.2279 155.583 49.0217 151.746 44.6667 148.083C32.85 138.233 29.4917 123.092 29.1334 110.192C28.8334 99.6917 30.4834 89.425 32.3084 81.8917L33.225 78.3583L33.7584 76.5417L34.3417 74.825L35.6917 71.15L36.9 68.1333L37.5917 66.5083L39.15 63.0583C41.3834 58.35 44.2334 53.2417 47.6584 48.975C53.4917 41.675 65.0917 28.7417 82.575 22.3917C100.358 15.9167 122.825 16.75 149.225 33.925ZM55.1417 68.2917C53.6417 71.2583 52.375 74.2333 51.3917 76.75L49.95 80.6917C49.825 81.05 49.7084 81.3833 49.6167 81.6833C47.7084 88.0667 45.4917 98.925 45.7834 109.717C46.1 120.808 48.9834 129.975 55.3334 135.267C58.4584 137.867 61.2167 140.35 63.7084 142.675L67.25 146.05L68.9 147.642C72.125 150.792 75.3084 154 78.775 156.883C84.2084 161.408 89.8834 164.667 100.008 166.55C110.125 164.667 115.8 161.408 121.233 156.883C123.542 154.958 125.733 152.883 127.883 150.8L132.758 146.05L136.308 142.675C138.8 140.342 141.558 137.867 144.675 135.267C151.025 129.975 153.908 120.808 154.225 109.717C154.525 98.9 152.292 88.0167 150.392 81.6417C150.034 80.4768 149.761 79.2876 149.575 78.0833L149.042 74.3667C145.666 73.5101 142.56 71.8195 140.008 69.45C126.917 72.4583 113.467 75 100 75C84.8917 75 69.775 71.9 55.1417 68.2917ZM139.192 100.167C143.658 101.075 146.608 105.558 145.692 110.008C144.108 117.717 140.675 125.275 135.058 130.892C130.7 135.25 124.892 136.133 120.842 136.083C116.725 136.033 112.458 135.025 109.442 133.408L108.15 132.658L105.483 131.033C104.189 130.211 102.763 129.619 101.267 129.283L100 129.167C97.85 129.167 95.8584 130.192 93.975 131.342L91.7584 132.725C91.405 132.944 91.0466 133.156 90.6834 133.358C87.5917 135.067 83.2667 136.075 79.1334 136.108C75.0667 136.15 69.2834 135.233 64.9417 130.892C59.3167 125.267 55.8917 117.7 54.3334 109.975C53.9294 107.898 54.3308 105.745 55.456 103.953C56.5812 102.161 58.346 100.864 60.3923 100.325C62.4386 99.7868 64.6131 100.047 66.4748 101.053C68.3364 102.059 69.7457 103.735 70.4167 105.742L70.6667 106.683C71.6667 111.075 73.5 115.883 76.725 119.1C78.725 120.433 81.725 119.217 83.8 118.075L86.8584 116.3C89.775 114.658 93.45 112.983 97.975 112.583L99.975 112.5C105.358 112.5 109.717 114.433 113.05 116.267L115.35 117.6C117.05 118.6 120.283 120.108 122.525 119.433L123.317 119.058L124.425 117.825C126.592 115.125 128.025 111.683 128.95 108.325L129.367 106.658C129.585 105.586 130.013 104.567 130.626 103.66C131.238 102.752 132.024 101.975 132.937 101.371C133.85 100.768 134.873 100.35 135.948 100.142C137.022 99.9336 138.128 99.9392 139.2 100.158L139.192 100.167ZM83.3334 83.3333C85.5435 83.3333 87.6631 84.2113 89.2259 85.7741C90.7887 87.3369 91.6667 89.4565 91.6667 91.6667C91.6667 93.8768 90.7887 95.9964 89.2259 97.5592C87.6631 99.122 85.5435 100 83.3334 100C81.1232 100 79.0036 99.122 77.4408 97.5592C75.878 95.9964 75 93.8768 75 91.6667C75 89.4565 75.878 87.3369 77.4408 85.7741C79.0036 84.2113 81.1232 83.3333 83.3334 83.3333ZM116.667 83.3333C118.877 83.3333 120.996 84.2113 122.559 85.7741C124.122 87.3369 125 89.4565 125 91.6667C125 93.8768 124.122 95.9964 122.559 97.5592C120.996 99.122 118.877 100 116.667 100C114.457 100 112.337 99.122 110.774 97.5592C109.211 95.9964 108.333 93.8768 108.333 91.6667C108.333 89.4565 109.211 87.3369 110.774 85.7741C112.337 84.2113 114.457 83.3333 116.667 83.3333ZM88.2667 38.0417C78.6167 41.55 71.0584 47.9 65.6417 53.6417C76.8917 56.1417 88.4417 58.3333 100 58.3333C110.275 58.3333 123.283 56.0667 133.333 53.8667C133.383 50.7 134.133 47.6917 135.45 45.0083C115.217 33.3 99.7 33.8833 88.2667 38.0417ZM154.167 50C153.062 50 152.002 50.439 151.22 51.2204C150.439 52.0018 150 53.0616 150 54.1667C150 55.2717 150.439 56.3316 151.22 57.1129C152.002 57.8944 153.062 58.3333 154.167 58.3333C155.272 58.3333 156.332 57.8944 157.113 57.1129C157.894 56.3316 158.333 55.2717 158.333 54.1667C158.333 53.0616 157.894 52.0018 157.113 51.2204C156.332 50.439 155.272 50 154.167 50Z" fill="#FFD6D9" fill-opacity="0.5"/>
</g>
</g>
<defs>
<clipPath id="clip0_18_3595">
<rect width="200" height="200" fill="white"/>
</clipPath>
</defs>
</svg>
