<svg width="200" height="200" viewBox="0 0 200 200" fill="none" xmlns="http://www.w3.org/2000/svg">
<g id="mdi:christmas-lights">
<path id="Vector" d="M188 94.9167C186.333 88.25 181.833 82.0834 175.417 78.6667L171.917 64.5C175.917 63.1667 179.75 61.75 183.333 60.25V41.6667C166.667 50.5834 137.75 58.5834 100 58.5834C62.2501 58.5834 33.3334 50.5834 16.6668 41.6667V60.25C20.2501 61.75 24.0834 63.1667 28.0834 64.5L24.5834 78.6667C21.4765 80.3581 18.7541 82.6756 16.5882 85.4725C14.4223 88.2695 12.8601 91.4853 12.0001 94.9167C7.54176 113.083 3.20843 144.25 24.3334 149.417C33.3334 151.667 50.0001 149.083 60.5834 106.833C62.1668 100 61.0834 92.6667 57.0001 86.5834L60.5001 72.25C67.8334 73.4167 75.4168 74.1667 83.3334 74.6667V89.5C77.9168 94.4167 75.0001 101.417 75.0001 108.333C75.0001 127 78.2501 158.333 100 158.333C109.333 158.333 125 151.833 125 108.333C125 101.417 122.083 94.4167 116.667 89.5V74.6667C124.583 74.1667 132.167 73.4167 139.5 72.25L143 86.5834C141.044 89.5314 139.716 92.851 139.099 96.3351C138.483 99.8192 138.591 103.393 139.417 106.833C150 149.083 166.667 151.667 175.667 149.417C196.75 144.25 192.417 113.083 188 94.9167ZM48.4168 103.917C48.4168 103.917 39.5001 140.333 27.3334 137.5C15.1668 134.333 24.1668 97.9167 24.1668 97.9167C24.1668 97.9167 27.1668 85.75 39.2501 88.75C51.3334 91.75 48.4168 103.917 48.4168 103.917ZM100 145.833C87.5001 145.833 87.5001 108.333 87.5001 108.333C87.5001 108.333 87.5001 95.8334 100 95.8334C112.5 95.8334 112.5 108.333 112.5 108.333C112.5 108.333 112.5 145.833 100 145.833ZM172.667 137.5C160.583 140.333 151.583 103.917 151.583 103.917C151.583 103.917 148.583 91.6667 160.75 88.75C172.917 85.8334 175.833 97.9167 175.833 97.9167C175.833 97.9167 184.833 134.333 172.667 137.5Z" fill="#FFD6D9" fill-opacity="0.5"/>
</g>
</svg>
