<svg width="200" height="200" viewBox="0 0 200 200" fill="none" xmlns="http://www.w3.org/2000/svg">
<g id="ion:snow">
<path id="Vector" d="M180.078 136.328L166.797 128.656C169.2 126.181 171.957 124.075 174.977 122.406C176.951 121.293 178.406 119.445 179.024 117.265C179.642 115.084 179.374 112.748 178.278 110.764C177.182 108.78 175.346 107.31 173.171 106.673C170.996 106.036 168.657 106.284 166.664 107.363C160.898 110.555 155.788 114.809 151.605 119.902L117.188 100L151.598 80.1328C155.78 85.2268 160.889 89.4816 166.656 92.6719C167.645 93.2292 168.734 93.5852 169.861 93.7194C170.987 93.8536 172.13 93.7633 173.221 93.4537C174.313 93.1442 175.332 92.6215 176.221 91.9158C177.11 91.2102 177.85 90.3355 178.399 89.3423C178.947 88.3491 179.294 87.2571 179.419 86.1292C179.543 85.0014 179.443 83.86 179.124 82.771C178.805 81.682 178.274 80.6669 177.561 79.7843C176.848 78.9018 175.967 78.1692 174.969 77.6289C171.95 75.9594 169.193 73.8534 166.789 71.3789L180.07 63.707C181.086 63.1639 181.983 62.422 182.706 61.5256C183.43 60.6291 183.965 59.5964 184.282 58.4887C184.598 57.381 184.689 56.221 184.548 55.0777C184.407 53.9343 184.038 52.831 183.462 51.8332C182.886 50.8354 182.116 49.9636 181.196 49.2696C180.277 48.5755 179.227 48.0734 178.11 47.793C176.992 47.5127 175.83 47.4599 174.692 47.6377C173.554 47.8155 172.463 48.2203 171.484 48.8281L158.203 56.4961C157.257 53.1755 156.807 49.7334 156.867 46.2812C156.892 45.1507 156.694 44.0264 156.283 42.9727C155.873 41.919 155.258 40.9567 154.475 40.1409C153.692 39.3251 152.756 38.6719 151.719 38.2187C150.683 37.7656 149.568 37.5213 148.438 37.5H148.277C146.026 37.4996 143.864 38.383 142.257 39.9602C140.649 41.5373 139.726 43.6823 139.684 45.9336C139.563 52.5191 140.689 59.0679 143.004 65.2344L108.594 85.1133V45.3828C115.095 44.3083 121.334 42.0112 126.981 38.6133C128.933 37.4369 130.338 35.5331 130.887 33.3208C131.435 31.1084 131.083 28.7688 129.906 26.8164C128.73 24.8641 126.826 23.459 124.614 22.9103C122.401 22.3616 120.062 22.7142 118.109 23.8906C115.15 25.6694 111.943 27.0003 108.594 27.8398V14.8438C108.594 12.5645 107.688 10.3787 106.077 8.76705C104.465 7.15541 102.279 6.25 100 6.25C97.7208 6.25 95.535 7.15541 93.9233 8.76705C92.3117 10.3787 91.4063 12.5645 91.4063 14.8438V27.8398C88.0569 27.0003 84.8503 25.6694 81.8907 23.8906C79.9383 22.7142 77.5986 22.3616 75.3863 22.9103C73.1739 23.459 71.2702 24.8641 70.0938 26.8164C68.9174 28.7688 68.5648 31.1084 69.1135 33.3208C69.6622 35.5331 71.0672 37.4369 73.0196 38.6133C78.6657 42.0112 84.9047 44.3083 91.4063 45.3828V85.1133L56.9961 65.2344C59.3145 59.066 60.4438 52.5144 60.3243 45.9258C60.2823 43.6744 59.3584 41.5295 57.7513 39.9524C56.1442 38.3752 53.9822 37.4918 51.7305 37.4922H51.5625C50.4339 37.513 49.3205 37.756 48.2858 38.2072C47.2511 38.6585 46.3155 39.3091 45.5323 40.1221C44.7491 40.935 44.1338 41.8942 43.7214 42.945C43.309 43.9958 43.1077 45.1175 43.1289 46.2461C43.1919 49.7033 42.7431 53.1508 41.7969 56.4766L28.5157 48.8281C27.5376 48.2447 26.4534 47.8615 25.326 47.7008C24.1986 47.5401 23.0505 47.605 21.9484 47.8919C20.8463 48.1788 19.8122 48.6818 18.9062 49.3718C18.0003 50.0618 17.2405 50.925 16.671 51.9112C16.1015 52.8974 15.7338 53.987 15.5891 55.1166C15.4444 56.2462 15.5256 57.3932 15.8281 58.4911C16.1306 59.589 16.6483 60.6159 17.351 61.512C18.0538 62.4081 18.9277 63.1555 19.9219 63.7109L33.2032 71.3828C30.799 73.8573 28.0427 75.9634 25.0235 77.6328C24.0256 78.1731 23.1447 78.9057 22.4314 79.7882C21.7182 80.6708 21.1868 81.6859 20.868 82.7749C20.5491 83.8639 20.449 85.0053 20.5736 86.1331C20.6982 87.261 21.0448 88.3531 21.5937 89.3462C22.1425 90.3394 22.8826 91.2141 23.7712 91.9197C24.6598 92.6254 25.6794 93.1481 26.7711 93.4576C27.8628 93.7672 29.005 93.8575 30.1317 93.7233C31.2585 93.5891 32.3475 93.2331 33.336 92.6758C39.1021 89.4843 44.2117 85.2296 48.3946 80.1367L82.8125 100L48.4024 119.867C44.2195 114.774 39.1099 110.52 33.3438 107.328C32.3553 106.771 31.2663 106.415 30.1395 106.281C29.0128 106.146 27.8706 106.237 26.7789 106.546C25.6872 106.856 24.6676 107.379 23.779 108.084C22.8904 108.79 22.1503 109.664 21.6015 110.658C21.0527 111.651 20.706 112.743 20.5814 113.871C20.4569 114.999 20.5569 116.14 20.8758 117.229C21.1946 118.318 21.726 119.333 22.4393 120.216C23.1525 121.098 24.0334 121.831 25.0313 122.371C28.0506 124.041 30.8068 126.147 33.211 128.621L19.9219 136.328C18.9277 136.884 18.0538 137.631 17.351 138.527C16.6483 139.423 16.1306 140.45 15.8281 141.548C15.5256 142.646 15.4444 143.793 15.5891 144.922C15.7338 146.052 16.1015 147.142 16.671 148.128C17.2405 149.114 18.0003 149.977 18.9062 150.667C19.8122 151.357 20.8463 151.86 21.9484 152.147C23.0505 152.434 24.1986 152.499 25.326 152.338C26.4534 152.178 27.5376 151.794 28.5157 151.211L41.7969 143.543C42.7428 146.864 43.193 150.306 43.1328 153.758C43.0931 156.034 43.9585 158.234 45.539 159.873C47.1195 161.512 49.286 162.457 51.5625 162.5H51.7227C53.9744 162.5 56.1363 161.617 57.7435 160.04C59.3506 158.463 60.2745 156.318 60.3164 154.066C60.4375 147.481 59.3109 140.932 56.9961 134.766L91.4063 114.887V154.617C84.9047 155.692 78.6657 157.989 73.0196 161.387C71.0672 162.563 69.6622 164.467 69.1135 166.679C68.5648 168.892 68.9174 171.231 70.0938 173.184C71.2702 175.136 73.1739 176.541 75.3863 177.09C77.5986 177.638 79.9383 177.286 81.8907 176.109C84.8503 174.331 88.0569 173 91.4063 172.16V185.156C91.4063 187.435 92.3117 189.621 93.9233 191.233C95.535 192.845 97.7208 193.75 100 193.75C102.279 193.75 104.465 192.845 106.077 191.233C107.688 189.621 108.594 187.435 108.594 185.156V172.16C111.943 173 115.15 174.331 118.109 176.109C120.062 177.286 122.401 177.638 124.614 177.09C126.826 176.541 128.73 175.136 129.906 173.184C131.083 171.231 131.435 168.892 130.887 166.679C130.338 164.467 128.933 162.563 126.981 161.387C121.334 157.989 115.095 155.692 108.594 154.617V114.887L143.004 134.766C140.686 140.934 139.556 147.486 139.676 154.074C139.718 156.326 140.642 158.47 142.249 160.048C143.856 161.625 146.018 162.508 148.27 162.508H148.438C149.566 162.487 150.68 162.244 151.714 161.793C152.749 161.342 153.685 160.691 154.468 159.878C155.251 159.065 155.866 158.106 156.279 157.055C156.691 156.004 156.892 154.882 156.871 153.754C156.808 150.297 157.257 146.849 158.203 143.523L171.484 151.191C172.462 151.819 173.558 152.242 174.704 152.435C175.85 152.628 177.023 152.586 178.153 152.312C179.282 152.038 180.345 151.538 181.275 150.842C182.206 150.145 182.986 149.268 183.567 148.262C184.149 147.255 184.521 146.142 184.66 144.988C184.799 143.834 184.702 142.664 184.376 141.548C184.05 140.433 183.501 139.395 182.762 138.498C182.023 137.6 181.11 136.862 180.078 136.328Z" fill="#FFD6D9" fill-opacity="0.5"/>
</g>
</svg>
