<svg width="200" height="200" viewBox="0 0 200 200" fill="none" xmlns="http://www.w3.org/2000/svg">
<g id="mingcute:christmas-hat-line" clip-path="url(#clip0_18_3639)">
<g id="Group">
<path id="Vector" fill-rule="evenodd" clip-rule="evenodd" d="M101.917 25C117.099 24.9974 131.722 30.7264 142.862 41.0411C154.002 51.3559 160.837 65.496 162 80.6333L166.533 139.575C169.667 142.338 172.058 145.842 173.488 149.766C174.919 153.691 175.343 157.912 174.722 162.043C174.101 166.174 172.455 170.084 169.934 173.415C167.413 176.746 164.097 179.392 160.29 181.111C156.483 182.831 152.306 183.569 148.14 183.258C143.974 182.947 139.952 181.597 136.443 179.332C132.933 177.067 130.047 173.958 128.048 170.29C126.049 166.621 125.001 162.511 125 158.333L49.9999 158.342C44.096 158.35 38.3794 156.269 33.8627 152.467C29.346 148.665 26.3207 143.387 25.3225 137.568C24.3244 131.749 25.4179 125.765 28.4094 120.675C31.4008 115.585 36.0972 111.718 41.6666 109.758V85.2583C41.6655 77.3455 43.2231 69.5099 46.2505 62.1991C49.2778 54.8883 53.7156 48.2454 59.3105 42.6498C64.9053 37.0541 71.5476 32.6154 78.858 29.5871C86.1684 26.5587 94.0038 25 101.917 25ZM150 150C147.79 150 145.67 150.878 144.107 152.441C142.545 154.004 141.667 156.123 141.667 158.333C141.667 160.543 142.545 162.663 144.107 164.226C145.67 165.789 147.79 166.667 150 166.667C152.21 166.667 154.33 165.789 155.893 164.226C157.455 162.663 158.333 160.543 158.333 158.333C158.333 156.123 157.455 154.004 155.893 152.441C154.33 150.878 152.21 150 150 150ZM127.333 125H49.9999C47.8759 125.002 45.833 125.816 44.2885 127.274C42.7441 128.732 41.8147 130.725 41.6902 132.845C41.5657 134.965 42.2556 137.053 43.6188 138.682C44.9821 140.311 46.9158 141.357 49.0249 141.608L49.9999 141.667H131.367L132.492 140.492L127.333 125ZM101.917 41.6667C90.6672 41.6658 79.8531 46.0146 71.7364 53.8036C63.6197 61.5926 58.8291 72.2184 58.3666 83.4583L58.3333 85.25V108.333H121.775L117.092 94.3C116.428 92.285 116.557 90.0927 117.454 88.1699C118.351 86.2472 119.947 84.7388 121.917 83.9523C123.888 83.1659 126.084 83.1606 128.058 83.9374C130.032 84.7143 131.636 86.215 132.542 88.1333L132.908 89.0333L147.708 133.433L149.333 133.342L145.375 81.9083C144.533 70.9595 139.589 60.7321 131.532 53.2712C123.474 45.8103 112.898 41.6658 101.917 41.6667Z" fill="#FFD6D9" fill-opacity="0.5"/>
</g>
</g>
<defs>
<clipPath id="clip0_18_3639">
<rect width="200" height="200" fill="white"/>
</clipPath>
</defs>
</svg>
