<?xml version="1.0" encoding="UTF-8"?>
<svg xmlns="http://www.w3.org/2000/svg" xmlns:xlink="http://www.w3.org/1999/xlink" width="2342pt" height="917pt" viewBox="0 0 2342 917" version="1.1"><g id="surface1"><path style=" stroke:none;fill-rule:nonzero;fill:rgb(94.898987%,43.499756%,53.29895%);fill-opacity:1;" d="M 1720.304688 131.476562 L 1741.949219 46.484375 L 1569.851562 60.210938 L 1545.039062 151.539062 L 1633.027344 141.640625 L 1449.492188 473.03125 L 1431.015625 570.167969 L 1620.535156 527.140625 L 1644.027344 435.816406 L 1541.523438 456.839844 Z M 1720.304688 131.476562 "/><path style=" stroke:none;fill-rule:nonzero;fill:rgb(94.898987%,43.499756%,53.29895%);fill-opacity:1;" d="M 1770.457031 44.371094 L 1647.980469 522.65625 L 1727.167969 505.234375 L 1843.191406 38.90625 Z M 1770.457031 44.371094 "/><path style=" stroke:none;fill-rule:nonzero;fill:rgb(94.898987%,43.499756%,53.29895%);fill-opacity:1;" d="M 2040.21875 23.785156 L 1976.507812 28.609375 L 1930.324219 222.082031 L 1928.039062 222.367188 L 1944.8125 31.003906 L 1872.867188 36.453125 L 1758.316406 498.371094 L 1832.425781 481.960938 L 1885.015625 263.980469 L 1886.945312 263.894531 L 1869.199219 473.816406 L 1869.195312 473.824219 L 1938.332031 458.515625 Z M 2040.21875 23.785156 "/><path style=" stroke:none;fill-rule:nonzero;fill:rgb(94.898987%,43.499756%,53.29895%);fill-opacity:1;" d="M 1347.292969 424.046875 L 1300.128906 432.320312 L 1395.417969 160.558594 L 1401.011719 159.707031 Z M 1342.324219 77.457031 L 1131.164062 636.332031 L 1236.753906 613.046875 L 1268.625 522.171875 L 1329.886719 509.671875 L 1312.269531 596.394531 L 1405.675781 575.796875 L 1502.8125 65.488281 Z M 1342.324219 77.457031 "/><path style=" stroke:none;fill-rule:nonzero;fill:rgb(94.898987%,43.499756%,53.29895%);fill-opacity:1;" d="M 2253.3125 8.300781 L 2137.179688 415.316406 L 2194.164062 402.515625 L 2212.042969 335.5 L 2245.460938 328.671875 L 2235.539062 393.140625 L 2235.3125 393.273438 L 2287.628906 381.527344 L 2342 1.4375 Z M 2282.683594 70.71875 L 2285.164062 70.519531 L 2255.128906 265.820312 L 2229.175781 271.28125 Z M 2282.683594 70.71875 "/><path style=" stroke:none;fill-rule:nonzero;fill:rgb(94.898987%,43.499756%,53.29895%);fill-opacity:1;" d="M 1335.839844 849.699219 L 1362.109375 839.542969 L 1386.648438 871.464844 L 1384.757812 830.539062 L 1406.40625 822.164062 L 1432.539062 853.71875 L 1429.222656 813.589844 L 1455.066406 803.597656 L 1459.738281 888.679688 L 1437.875 897.132812 L 1410.257812 864.917969 L 1411.496094 907.335938 L 1389.625 915.796875 Z M 1335.839844 849.699219 "/><path style=" stroke:none;fill-rule:nonzero;fill:rgb(94.898987%,43.499756%,53.29895%);fill-opacity:1;" d="M 1459.679688 801.808594 L 1484.773438 792.105469 L 1495.007812 818.582031 L 1517.953125 809.714844 L 1507.710938 783.238281 L 1532.804688 773.53125 L 1561.832031 848.585938 L 1536.738281 858.285156 L 1526.339844 831.378906 L 1503.386719 840.25 L 1513.796875 867.160156 L 1488.703125 876.863281 Z M 1459.679688 801.808594 "/><path style=" stroke:none;fill-rule:nonzero;fill:rgb(94.898987%,43.499756%,53.29895%);fill-opacity:1;" d="M 1605.734375 799.566406 L 1591.824219 783.988281 L 1592.007812 804.871094 Z M 1568.199219 759.230469 L 1593.078125 749.609375 L 1653.9375 812.972656 L 1626.703125 823.5 L 1618.839844 814.960938 L 1592.570312 825.117188 L 1592.605469 836.6875 L 1565.800781 847.054688 Z M 1568.199219 759.230469 "/><path style=" stroke:none;fill-rule:nonzero;fill:rgb(94.898987%,43.499756%,53.29895%);fill-opacity:1;" d="M 1646.539062 753.957031 L 1624.457031 762.496094 L 1616.238281 741.261719 L 1685.503906 714.480469 L 1693.710938 735.710938 L 1671.625 744.253906 L 1692.441406 798.078125 L 1667.351562 807.777344 Z M 1646.539062 753.957031 "/><path style=" stroke:none;fill-rule:nonzero;fill:rgb(94.898987%,43.499756%,53.29895%);fill-opacity:1;" d="M 1745.851562 715.546875 L 1723.765625 724.085938 L 1715.5625 702.859375 L 1784.816406 676.074219 L 1793.03125 697.300781 L 1770.945312 705.847656 L 1791.761719 759.667969 L 1766.667969 769.371094 Z M 1745.851562 715.546875 "/><path style=" stroke:none;fill-rule:nonzero;fill:rgb(94.898987%,43.499756%,53.29895%);fill-opacity:1;" d="M 1789.945312 674.09375 L 1815.039062 664.390625 L 1825.28125 690.867188 L 1848.21875 681.996094 L 1837.980469 655.519531 L 1863.066406 645.816406 L 1892.09375 720.871094 L 1867.011719 730.570312 L 1856.601562 703.664062 L 1833.652344 712.53125 L 1844.058594 739.441406 L 1818.972656 749.148438 Z M 1789.945312 674.09375 "/><path style=" stroke:none;fill-rule:nonzero;fill:rgb(94.898987%,43.499756%,53.29895%);fill-opacity:1;" d="M 1874.261719 641.484375 L 1938.261719 616.738281 L 1946.234375 637.320312 L 1906.878906 652.539062 L 1909.824219 660.152344 L 1946.488281 645.96875 L 1953.5 664.089844 L 1916.832031 678.277344 L 1919.984375 686.417969 L 1959.863281 671 L 1967.828125 691.582031 L 1903.28125 716.546875 Z M 1874.261719 641.484375 "/><path style=" stroke:none;fill-rule:nonzero;fill:rgb(94.898987%,43.499756%,53.29895%);fill-opacity:1;" d="M 1972.820312 603.371094 L 2035.652344 579.078125 L 2043.949219 600.519531 L 2006.210938 615.113281 L 2009.898438 624.652344 L 2044.960938 611.09375 L 2052.503906 630.609375 L 2017.445312 644.171875 L 2026.9375 668.722656 L 2001.855469 678.429688 Z M 1972.820312 603.371094 "/><path style=" stroke:none;fill-rule:nonzero;fill:rgb(94.898987%,43.499756%,53.29895%);fill-opacity:1;" d="M 2058.976562 617.636719 L 2042.960938 576.25 L 2068.480469 566.378906 L 2084.375 607.445312 C 2087.96875 616.773438 2094.335938 618.871094 2101.09375 616.261719 C 2107.84375 613.648438 2111.25 608.136719 2107.738281 599.027344 L 2091.640625 557.417969 L 2117.160156 547.558594 L 2132.964844 588.410156 C 2142.878906 614.03125 2131.863281 629.875 2109.453125 638.542969 C 2087.042969 647.207031 2068.597656 642.511719 2058.976562 617.636719 "/><path style=" stroke:none;fill-rule:nonzero;fill:rgb(94.898987%,43.499756%,53.29895%);fill-opacity:1;" d="M 2127.683594 543.484375 L 2151.164062 534.40625 L 2190.679688 557.210938 L 2177.871094 524.078125 L 2202.746094 514.457031 L 2231.769531 589.519531 L 2209.457031 598.144531 L 2168.195312 574.285156 L 2181.589844 608.921875 L 2156.714844 618.542969 Z M 2127.683594 543.484375 "/><path style=" stroke:none;fill-rule:nonzero;fill:rgb(98.399353%,90.59906%,0%);fill-opacity:1;" d="M 496.265625 531.609375 L 588.472656 426.027344 L -0.316406 724.121094 L 348.808594 599.886719 L 241.472656 717.585938 L 802.808594 421.609375 Z M 496.265625 531.609375 "/><path style=" stroke:none;fill-rule:nonzero;fill:rgb(94.898987%,43.499756%,53.29895%);fill-opacity:1;" d="M 1094.023438 96.703125 L 938.082031 450.726562 L 935.839844 450.859375 L 996.734375 104.210938 L 805.273438 118.984375 L 700.394531 435.71875 C 712.15625 431.425781 795.789062 401.546875 831.269531 388.875 L 863.691406 287.914062 L 866.15625 287.824219 L 804.628906 708.382812 L 918.957031 683.207031 L 1111.105469 260.285156 L 1113.566406 260.105469 L 989.746094 667.617188 L 1096.675781 644.074219 L 1261.382812 83.792969 Z M 1094.023438 96.703125 "/><path style=" stroke:none;fill-rule:nonzero;fill:rgb(94.898987%,43.499756%,53.29895%);fill-opacity:1;" d="M 451.925781 144.324219 L 257.210938 559.4375 L 436.730469 473.523438 L 534.542969 247.527344 L 541.582031 246.734375 L 491.777344 447.175781 L 641.316406 375.605469 L 699.601562 126.726562 Z M 451.925781 144.324219 "/><path style=" stroke:none;fill-rule:nonzero;fill:rgb(94.898987%,43.499756%,53.29895%);fill-opacity:1;" d="M 273.457031 649.113281 L 203.464844 674.019531 L 157.257812 772.523438 L 228.910156 696.425781 Z M 273.457031 649.113281 "/><path style=" stroke:none;fill-rule:nonzero;fill:rgb(94.898987%,43.499756%,53.29895%);fill-opacity:1;" d="M 565.640625 484.28125 L 620.480469 464.605469 L 634.273438 405.691406 L 604.378906 439.914062 Z M 565.640625 484.28125 "/><path style=" stroke:none;fill-rule:nonzero;fill:rgb(94.898987%,43.499756%,53.29895%);fill-opacity:1;" d="M 404.878906 796.925781 L 550.203125 764.695312 L 599.761719 553.078125 L 444.152344 638.863281 Z M 404.878906 796.925781 "/><path style=" stroke:none;fill-rule:nonzero;fill:rgb(94.898987%,43.499756%,53.29895%);fill-opacity:1;" d="M 115.734375 861.042969 L 285.273438 823.449219 L 341.40625 695.511719 L 141.765625 805.570312 Z M 115.734375 861.042969 "/><path style=" stroke:none;fill-rule:nonzero;fill:rgb(94.898987%,43.499756%,53.29895%);fill-opacity:1;" d="M 812.507812 440.332031 L 812.515625 440.355469 L 675.324219 511.417969 L 594.8125 754.582031 L 722.894531 726.375 L 815.125 439.140625 Z M 812.507812 440.332031 "/><path style=" stroke:none;fill-rule:nonzero;fill:rgb(94.898987%,43.499756%,53.29895%);fill-opacity:1;" d="M 2190.859375 88.304688 L 2180.375 147.210938 L 2123.09375 153.449219 L 2131.210938 116.824219 C 2131.210938 116.824219 2134.867188 102.5625 2133.5 93.992188 C 2133.5 93.992188 2132.957031 88.238281 2126.5 87.523438 C 2126.5 87.523438 2114.460938 85.6875 2107.132812 100.078125 C 2107.132812 100.078125 2103.742188 104.683594 2097.980469 128.074219 L 2079.144531 212.058594 L 2057.949219 305.597656 L 2051.148438 335.679688 C 2051.148438 335.679688 2045.148438 357.753906 2056.769531 360.539062 C 2056.769531 360.539062 2068.542969 364.203125 2077.828125 346.019531 C 2077.828125 346.019531 2083.695312 335.53125 2088.5625 311.351562 L 2100.28125 257.496094 L 2082.023438 259.679688 L 2107.265625 187.082031 L 2174 177.929688 L 2121.003906 417.707031 C 2111.957031 412.886719 2103.203125 411.351562 2095.648438 412.742188 C 2085.144531 414.675781 2077.300781 421.03125 2077.300781 421.03125 C 2057.898438 433.90625 2042.21875 438.945312 2034.464844 440.824219 C 2032.914062 441.152344 2031.375 441.488281 2029.789062 441.792969 C 2029.390625 441.851562 2029.132812 441.886719 2029.132812 441.886719 C 2029.132812 441.886719 2029.117188 441.925781 2029.113281 441.925781 C 2027.871094 442.144531 2026.601562 442.332031 2025.332031 442.472656 C 2025.332031 442.472656 1981.101562 448.757812 1981.792969 392.421875 C 1981.792969 392.421875 1981.972656 372.710938 1986.78125 349.152344 L 2039.109375 123.101562 C 2039.109375 123.101562 2053.503906 66.328125 2083.066406 38.332031 C 2083.066406 38.332031 2124.507812 -1.109375 2167.601562 16.535156 C 2172.410156 18.683594 2180.769531 23.492188 2185.71875 32.453125 L 2185.964844 32.84375 C 2190.671875 42.570312 2194.707031 59.601562 2190.859375 88.304688 "/></g><script xmlns=""/></svg>