<svg width="1920" height="64" viewBox="0 0 1920 64" fill="none" xmlns="http://www.w3.org/2000/svg">
<g clip-path="url(#clip0_19_5696)">
<rect width="1920" height="64" fill="#F5F5F5"/>
<line x1="1920" y1="2" x2="-1.74846e-07" y2="1.99983" stroke="#B3000C" stroke-width="4"/>
<line y1="62" x2="1920" y2="62" stroke="#B3000C" stroke-width="4"/>
<path d="M15.1554 4L24.2487 21.25H6.06218L15.1554 4Z" fill="#B3000C"/>
<path d="M15.1554 11L26.8468 32H3.4641L15.1554 11Z" fill="#B3000C"/>
<path d="M15.1554 19L30.3109 46.75H0L15.1554 19Z" fill="#B3000C"/>
<path d="M11.6554 46H18.6554V60H11.6554V46Z" fill="#B3000C"/>
<path d="M45.1554 4L54.2487 21.25H36.0622L45.1554 4Z" fill="#B3000C"/>
<path d="M45.1554 11L56.8468 32H33.4641L45.1554 11Z" fill="#B3000C"/>
<path d="M45.1554 19L60.3109 46.75H30L45.1554 19Z" fill="#B3000C"/>
<path d="M41.6554 46H48.6554V60H41.6554V46Z" fill="#B3000C"/>
<path d="M75.1554 4L84.2487 21.25H66.0622L75.1554 4Z" fill="#B3000C"/>
<path d="M75.1554 11L86.8468 32H63.4641L75.1554 11Z" fill="#B3000C"/>
<path d="M75.1554 19L90.3109 46.75H60L75.1554 19Z" fill="#B3000C"/>
<path d="M71.6554 46H78.6554V60H71.6554V46Z" fill="#B3000C"/>
<path d="M105.155 4L114.249 21.25H96.0622L105.155 4Z" fill="#B3000C"/>
<path d="M105.155 11L116.847 32H93.4641L105.155 11Z" fill="#B3000C"/>
<path d="M105.155 19L120.311 46.75H90L105.155 19Z" fill="#B3000C"/>
<path d="M101.655 46H108.655V60H101.655V46Z" fill="#B3000C"/>
<path d="M135.155 4L144.249 21.25H126.062L135.155 4Z" fill="#B3000C"/>
<path d="M135.155 11L146.847 32H123.464L135.155 11Z" fill="#B3000C"/>
<path d="M135.155 19L150.311 46.75H120L135.155 19Z" fill="#B3000C"/>
<path d="M131.655 46H138.655V60H131.655V46Z" fill="#B3000C"/>
<path d="M165.155 4L174.249 21.25H156.062L165.155 4Z" fill="#B3000C"/>
<path d="M165.155 11L176.847 32H153.464L165.155 11Z" fill="#B3000C"/>
<path d="M165.155 19L180.311 46.75H150L165.155 19Z" fill="#B3000C"/>
<path d="M161.655 46H168.655V60H161.655V46Z" fill="#B3000C"/>
<path d="M195.155 4L204.249 21.25H186.062L195.155 4Z" fill="#B3000C"/>
<path d="M195.155 11L206.847 32H183.464L195.155 11Z" fill="#B3000C"/>
<path d="M195.155 19L210.311 46.75H180L195.155 19Z" fill="#B3000C"/>
<path d="M191.655 46H198.655V60H191.655V46Z" fill="#B3000C"/>
<path d="M225.155 4L234.249 21.25H216.062L225.155 4Z" fill="#B3000C"/>
<path d="M225.155 11L236.847 32H213.464L225.155 11Z" fill="#B3000C"/>
<path d="M225.155 19L240.311 46.75H210L225.155 19Z" fill="#B3000C"/>
<path d="M221.655 46H228.655V60H221.655V46Z" fill="#B3000C"/>
<path d="M255.155 4L264.249 21.25H246.062L255.155 4Z" fill="#B3000C"/>
<path d="M255.155 11L266.847 32H243.464L255.155 11Z" fill="#B3000C"/>
<path d="M255.155 19L270.311 46.75H240L255.155 19Z" fill="#B3000C"/>
<path d="M251.655 46H258.655V60H251.655V46Z" fill="#B3000C"/>
<path d="M285.155 4L294.249 21.25H276.062L285.155 4Z" fill="#B3000C"/>
<path d="M285.155 11L296.847 32H273.464L285.155 11Z" fill="#B3000C"/>
<path d="M285.155 19L300.311 46.75H270L285.155 19Z" fill="#B3000C"/>
<path d="M281.655 46H288.655V60H281.655V46Z" fill="#B3000C"/>
<path d="M315.155 4L324.249 21.25H306.062L315.155 4Z" fill="#B3000C"/>
<path d="M315.155 11L326.847 32H303.464L315.155 11Z" fill="#B3000C"/>
<path d="M315.155 19L330.311 46.75H300L315.155 19Z" fill="#B3000C"/>
<path d="M311.655 46H318.655V60H311.655V46Z" fill="#B3000C"/>
<path d="M345.155 4L354.249 21.25H336.062L345.155 4Z" fill="#B3000C"/>
<path d="M345.155 11L356.847 32H333.464L345.155 11Z" fill="#B3000C"/>
<path d="M345.155 19L360.311 46.75H330L345.155 19Z" fill="#B3000C"/>
<path d="M341.655 46H348.655V60H341.655V46Z" fill="#B3000C"/>
<path d="M375.155 4L384.249 21.25H366.062L375.155 4Z" fill="#B3000C"/>
<path d="M375.155 11L386.847 32H363.464L375.155 11Z" fill="#B3000C"/>
<path d="M375.155 19L390.311 46.75H360L375.155 19Z" fill="#B3000C"/>
<path d="M371.655 46H378.655V60H371.655V46Z" fill="#B3000C"/>
<path d="M405.155 4L414.249 21.25H396.062L405.155 4Z" fill="#B3000C"/>
<path d="M405.155 11L416.847 32H393.464L405.155 11Z" fill="#B3000C"/>
<path d="M405.155 19L420.311 46.75H390L405.155 19Z" fill="#B3000C"/>
<path d="M401.655 46H408.655V60H401.655V46Z" fill="#B3000C"/>
<path d="M435.155 4L444.249 21.25H426.062L435.155 4Z" fill="#B3000C"/>
<path d="M435.155 11L446.847 32H423.464L435.155 11Z" fill="#B3000C"/>
<path d="M435.155 19L450.311 46.75H420L435.155 19Z" fill="#B3000C"/>
<path d="M431.655 46H438.655V60H431.655V46Z" fill="#B3000C"/>
<path d="M465.155 4L474.249 21.25H456.062L465.155 4Z" fill="#B3000C"/>
<path d="M465.155 11L476.847 32H453.464L465.155 11Z" fill="#B3000C"/>
<path d="M465.155 19L480.311 46.75H450L465.155 19Z" fill="#B3000C"/>
<path d="M461.655 46H468.655V60H461.655V46Z" fill="#B3000C"/>
<path d="M495.155 4L504.249 21.25H486.062L495.155 4Z" fill="#B3000C"/>
<path d="M495.155 11L506.847 32H483.464L495.155 11Z" fill="#B3000C"/>
<path d="M495.155 19L510.311 46.75H480L495.155 19Z" fill="#B3000C"/>
<path d="M491.655 46H498.655V60H491.655V46Z" fill="#B3000C"/>
<path d="M525.155 4L534.249 21.25H516.062L525.155 4Z" fill="#B3000C"/>
<path d="M525.155 11L536.847 32H513.464L525.155 11Z" fill="#B3000C"/>
<path d="M525.155 19L540.311 46.75H510L525.155 19Z" fill="#B3000C"/>
<path d="M521.655 46H528.655V60H521.655V46Z" fill="#B3000C"/>
<path d="M555.155 4L564.249 21.25H546.062L555.155 4Z" fill="#B3000C"/>
<path d="M555.155 11L566.847 32H543.464L555.155 11Z" fill="#B3000C"/>
<path d="M555.155 19L570.311 46.75H540L555.155 19Z" fill="#B3000C"/>
<path d="M551.655 46H558.655V60H551.655V46Z" fill="#B3000C"/>
<path d="M585.155 4L594.249 21.25H576.062L585.155 4Z" fill="#B3000C"/>
<path d="M585.155 11L596.847 32H573.464L585.155 11Z" fill="#B3000C"/>
<path d="M585.155 19L600.311 46.75H570L585.155 19Z" fill="#B3000C"/>
<path d="M581.655 46H588.655V60H581.655V46Z" fill="#B3000C"/>
<path d="M615.155 4L624.249 21.25H606.062L615.155 4Z" fill="#B3000C"/>
<path d="M615.155 11L626.847 32H603.464L615.155 11Z" fill="#B3000C"/>
<path d="M615.155 19L630.311 46.75H600L615.155 19Z" fill="#B3000C"/>
<path d="M611.655 46H618.655V60H611.655V46Z" fill="#B3000C"/>
<path d="M645.155 4L654.249 21.25H636.062L645.155 4Z" fill="#B3000C"/>
<path d="M645.155 11L656.847 32H633.464L645.155 11Z" fill="#B3000C"/>
<path d="M645.155 19L660.311 46.75H630L645.155 19Z" fill="#B3000C"/>
<path d="M641.655 46H648.655V60H641.655V46Z" fill="#B3000C"/>
<path d="M675.155 4L684.249 21.25H666.062L675.155 4Z" fill="#B3000C"/>
<path d="M675.155 11L686.847 32H663.464L675.155 11Z" fill="#B3000C"/>
<path d="M675.155 19L690.311 46.75H660L675.155 19Z" fill="#B3000C"/>
<path d="M671.655 46H678.655V60H671.655V46Z" fill="#B3000C"/>
<path d="M705.155 4L714.249 21.25H696.062L705.155 4Z" fill="#B3000C"/>
<path d="M705.155 11L716.847 32H693.464L705.155 11Z" fill="#B3000C"/>
<path d="M705.155 19L720.311 46.75H690L705.155 19Z" fill="#B3000C"/>
<path d="M701.655 46H708.655V60H701.655V46Z" fill="#B3000C"/>
<path d="M735.155 4L744.249 21.25H726.062L735.155 4Z" fill="#B3000C"/>
<path d="M735.155 11L746.847 32H723.464L735.155 11Z" fill="#B3000C"/>
<path d="M735.155 19L750.311 46.75H720L735.155 19Z" fill="#B3000C"/>
<path d="M731.655 46H738.655V60H731.655V46Z" fill="#B3000C"/>
<path d="M765.155 4L774.249 21.25H756.062L765.155 4Z" fill="#B3000C"/>
<path d="M765.155 11L776.847 32H753.464L765.155 11Z" fill="#B3000C"/>
<path d="M765.155 19L780.311 46.75H750L765.155 19Z" fill="#B3000C"/>
<path d="M761.655 46H768.655V60H761.655V46Z" fill="#B3000C"/>
<path d="M795.155 4L804.249 21.25H786.062L795.155 4Z" fill="#B3000C"/>
<path d="M795.155 11L806.847 32H783.464L795.155 11Z" fill="#B3000C"/>
<path d="M795.155 19L810.311 46.75H780L795.155 19Z" fill="#B3000C"/>
<path d="M791.655 46H798.655V60H791.655V46Z" fill="#B3000C"/>
<path d="M825.155 4L834.249 21.25H816.062L825.155 4Z" fill="#B3000C"/>
<path d="M825.155 11L836.847 32H813.464L825.155 11Z" fill="#B3000C"/>
<path d="M825.155 19L840.311 46.75H810L825.155 19Z" fill="#B3000C"/>
<path d="M821.655 46H828.655V60H821.655V46Z" fill="#B3000C"/>
<path d="M855.155 4L864.249 21.25H846.062L855.155 4Z" fill="#B3000C"/>
<path d="M855.155 11L866.847 32H843.464L855.155 11Z" fill="#B3000C"/>
<path d="M855.155 19L870.311 46.75H840L855.155 19Z" fill="#B3000C"/>
<path d="M851.655 46H858.655V60H851.655V46Z" fill="#B3000C"/>
<path d="M885.155 4L894.249 21.25H876.062L885.155 4Z" fill="#B3000C"/>
<path d="M885.155 11L896.847 32H873.464L885.155 11Z" fill="#B3000C"/>
<path d="M885.155 19L900.311 46.75H870L885.155 19Z" fill="#B3000C"/>
<path d="M881.655 46H888.655V60H881.655V46Z" fill="#B3000C"/>
<path d="M915.155 4L924.249 21.25H906.062L915.155 4Z" fill="#B3000C"/>
<path d="M915.155 11L926.847 32H903.464L915.155 11Z" fill="#B3000C"/>
<path d="M915.155 19L930.311 46.75H900L915.155 19Z" fill="#B3000C"/>
<path d="M911.655 46H918.655V60H911.655V46Z" fill="#B3000C"/>
<path d="M945.155 4L954.249 21.25H936.062L945.155 4Z" fill="#B3000C"/>
<path d="M945.155 11L956.847 32H933.464L945.155 11Z" fill="#B3000C"/>
<path d="M945.155 19L960.311 46.75H930L945.155 19Z" fill="#B3000C"/>
<path d="M941.655 46H948.655V60H941.655V46Z" fill="#B3000C"/>
<path d="M975.155 4L984.249 21.25H966.062L975.155 4Z" fill="#B3000C"/>
<path d="M975.155 11L986.847 32H963.464L975.155 11Z" fill="#B3000C"/>
<path d="M975.155 19L990.311 46.75H960L975.155 19Z" fill="#B3000C"/>
<path d="M971.655 46H978.655V60H971.655V46Z" fill="#B3000C"/>
<path d="M1005.16 4L1014.25 21.25H996.062L1005.16 4Z" fill="#B3000C"/>
<path d="M1005.16 11L1016.85 32H993.464L1005.16 11Z" fill="#B3000C"/>
<path d="M1005.16 19L1020.31 46.75H990L1005.16 19Z" fill="#B3000C"/>
<path d="M1001.66 46H1008.66V60H1001.66V46Z" fill="#B3000C"/>
<path d="M1035.16 4L1044.25 21.25H1026.06L1035.16 4Z" fill="#B3000C"/>
<path d="M1035.16 11L1046.85 32H1023.46L1035.16 11Z" fill="#B3000C"/>
<path d="M1035.16 19L1050.31 46.75H1020L1035.16 19Z" fill="#B3000C"/>
<path d="M1031.66 46H1038.66V60H1031.66V46Z" fill="#B3000C"/>
<path d="M1065.16 4L1074.25 21.25H1056.06L1065.16 4Z" fill="#B3000C"/>
<path d="M1065.16 11L1076.85 32H1053.46L1065.16 11Z" fill="#B3000C"/>
<path d="M1065.16 19L1080.31 46.75H1050L1065.16 19Z" fill="#B3000C"/>
<path d="M1061.66 46H1068.66V60H1061.66V46Z" fill="#B3000C"/>
<path d="M1095.16 4L1104.25 21.25H1086.06L1095.16 4Z" fill="#B3000C"/>
<path d="M1095.16 11L1106.85 32H1083.46L1095.16 11Z" fill="#B3000C"/>
<path d="M1095.16 19L1110.31 46.75H1080L1095.16 19Z" fill="#B3000C"/>
<path d="M1091.66 46H1098.66V60H1091.66V46Z" fill="#B3000C"/>
<path d="M1125.16 4L1134.25 21.25H1116.06L1125.16 4Z" fill="#B3000C"/>
<path d="M1125.16 11L1136.85 32H1113.46L1125.16 11Z" fill="#B3000C"/>
<path d="M1125.16 19L1140.31 46.75H1110L1125.16 19Z" fill="#B3000C"/>
<path d="M1121.66 46H1128.66V60H1121.66V46Z" fill="#B3000C"/>
<path d="M1155.16 4L1164.25 21.25H1146.06L1155.16 4Z" fill="#B3000C"/>
<path d="M1155.16 11L1166.85 32H1143.46L1155.16 11Z" fill="#B3000C"/>
<path d="M1155.16 19L1170.31 46.75H1140L1155.16 19Z" fill="#B3000C"/>
<path d="M1151.66 46H1158.66V60H1151.66V46Z" fill="#B3000C"/>
<path d="M1185.16 4L1194.25 21.25H1176.06L1185.16 4Z" fill="#B3000C"/>
<path d="M1185.16 11L1196.85 32H1173.46L1185.16 11Z" fill="#B3000C"/>
<path d="M1185.16 19L1200.31 46.75H1170L1185.16 19Z" fill="#B3000C"/>
<path d="M1181.66 46H1188.66V60H1181.66V46Z" fill="#B3000C"/>
<path d="M1215.16 4L1224.25 21.25H1206.06L1215.16 4Z" fill="#B3000C"/>
<path d="M1215.16 11L1226.85 32H1203.46L1215.16 11Z" fill="#B3000C"/>
<path d="M1215.16 19L1230.31 46.75H1200L1215.16 19Z" fill="#B3000C"/>
<path d="M1211.66 46H1218.66V60H1211.66V46Z" fill="#B3000C"/>
<path d="M1245.16 4L1254.25 21.25H1236.06L1245.16 4Z" fill="#B3000C"/>
<path d="M1245.16 11L1256.85 32H1233.46L1245.16 11Z" fill="#B3000C"/>
<path d="M1245.16 19L1260.31 46.75H1230L1245.16 19Z" fill="#B3000C"/>
<path d="M1241.66 46H1248.66V60H1241.66V46Z" fill="#B3000C"/>
<path d="M1275.16 4L1284.25 21.25H1266.06L1275.16 4Z" fill="#B3000C"/>
<path d="M1275.16 11L1286.85 32H1263.46L1275.16 11Z" fill="#B3000C"/>
<path d="M1275.16 19L1290.31 46.75H1260L1275.16 19Z" fill="#B3000C"/>
<path d="M1271.66 46H1278.66V60H1271.66V46Z" fill="#B3000C"/>
<path d="M1305.16 4L1314.25 21.25H1296.06L1305.16 4Z" fill="#B3000C"/>
<path d="M1305.16 11L1316.85 32H1293.46L1305.16 11Z" fill="#B3000C"/>
<path d="M1305.16 19L1320.31 46.75H1290L1305.16 19Z" fill="#B3000C"/>
<path d="M1301.66 46H1308.66V60H1301.66V46Z" fill="#B3000C"/>
<path d="M1335.16 4L1344.25 21.25H1326.06L1335.16 4Z" fill="#B3000C"/>
<path d="M1335.16 11L1346.85 32H1323.46L1335.16 11Z" fill="#B3000C"/>
<path d="M1335.16 19L1350.31 46.75H1320L1335.16 19Z" fill="#B3000C"/>
<path d="M1331.66 46H1338.66V60H1331.66V46Z" fill="#B3000C"/>
<path d="M1365.16 4L1374.25 21.25H1356.06L1365.16 4Z" fill="#B3000C"/>
<path d="M1365.16 11L1376.85 32H1353.46L1365.16 11Z" fill="#B3000C"/>
<path d="M1365.16 19L1380.31 46.75H1350L1365.16 19Z" fill="#B3000C"/>
<path d="M1361.66 46H1368.66V60H1361.66V46Z" fill="#B3000C"/>
<path d="M1395.16 4L1404.25 21.25H1386.06L1395.16 4Z" fill="#B3000C"/>
<path d="M1395.16 11L1406.85 32H1383.46L1395.16 11Z" fill="#B3000C"/>
<path d="M1395.16 19L1410.31 46.75H1380L1395.16 19Z" fill="#B3000C"/>
<path d="M1391.66 46H1398.66V60H1391.66V46Z" fill="#B3000C"/>
<path d="M1425.16 4L1434.25 21.25H1416.06L1425.16 4Z" fill="#B3000C"/>
<path d="M1425.16 11L1436.85 32H1413.46L1425.16 11Z" fill="#B3000C"/>
<path d="M1425.16 19L1440.31 46.75H1410L1425.16 19Z" fill="#B3000C"/>
<path d="M1421.66 46H1428.66V60H1421.66V46Z" fill="#B3000C"/>
<path d="M1455.16 4L1464.25 21.25H1446.06L1455.16 4Z" fill="#B3000C"/>
<path d="M1455.16 11L1466.85 32H1443.46L1455.16 11Z" fill="#B3000C"/>
<path d="M1455.16 19L1470.31 46.75H1440L1455.16 19Z" fill="#B3000C"/>
<path d="M1451.66 46H1458.66V60H1451.66V46Z" fill="#B3000C"/>
<path d="M1485.16 4L1494.25 21.25H1476.06L1485.16 4Z" fill="#B3000C"/>
<path d="M1485.16 11L1496.85 32H1473.46L1485.16 11Z" fill="#B3000C"/>
<path d="M1485.16 19L1500.31 46.75H1470L1485.16 19Z" fill="#B3000C"/>
<path d="M1481.66 46H1488.66V60H1481.66V46Z" fill="#B3000C"/>
<path d="M1515.16 4L1524.25 21.25H1506.06L1515.16 4Z" fill="#B3000C"/>
<path d="M1515.16 11L1526.85 32H1503.46L1515.16 11Z" fill="#B3000C"/>
<path d="M1515.16 19L1530.31 46.75H1500L1515.16 19Z" fill="#B3000C"/>
<path d="M1511.66 46H1518.66V60H1511.66V46Z" fill="#B3000C"/>
<path d="M1545.16 4L1554.25 21.25H1536.06L1545.16 4Z" fill="#B3000C"/>
<path d="M1545.16 11L1556.85 32H1533.46L1545.16 11Z" fill="#B3000C"/>
<path d="M1545.16 19L1560.31 46.75H1530L1545.16 19Z" fill="#B3000C"/>
<path d="M1541.66 46H1548.66V60H1541.66V46Z" fill="#B3000C"/>
<path d="M1575.16 4L1584.25 21.25H1566.06L1575.16 4Z" fill="#B3000C"/>
<path d="M1575.16 11L1586.85 32H1563.46L1575.16 11Z" fill="#B3000C"/>
<path d="M1575.16 19L1590.31 46.75H1560L1575.16 19Z" fill="#B3000C"/>
<path d="M1571.66 46H1578.66V60H1571.66V46Z" fill="#B3000C"/>
<path d="M1605.16 4L1614.25 21.25H1596.06L1605.16 4Z" fill="#B3000C"/>
<path d="M1605.16 11L1616.85 32H1593.46L1605.16 11Z" fill="#B3000C"/>
<path d="M1605.16 19L1620.31 46.75H1590L1605.16 19Z" fill="#B3000C"/>
<path d="M1601.66 46H1608.66V60H1601.66V46Z" fill="#B3000C"/>
<path d="M1635.16 4L1644.25 21.25H1626.06L1635.16 4Z" fill="#B3000C"/>
<path d="M1635.16 11L1646.85 32H1623.46L1635.16 11Z" fill="#B3000C"/>
<path d="M1635.16 19L1650.31 46.75H1620L1635.16 19Z" fill="#B3000C"/>
<path d="M1631.66 46H1638.66V60H1631.66V46Z" fill="#B3000C"/>
<path d="M1665.16 4L1674.25 21.25H1656.06L1665.16 4Z" fill="#B3000C"/>
<path d="M1665.16 11L1676.85 32H1653.46L1665.16 11Z" fill="#B3000C"/>
<path d="M1665.16 19L1680.31 46.75H1650L1665.16 19Z" fill="#B3000C"/>
<path d="M1661.66 46H1668.66V60H1661.66V46Z" fill="#B3000C"/>
<path d="M1695.16 4L1704.25 21.25H1686.06L1695.16 4Z" fill="#B3000C"/>
<path d="M1695.16 11L1706.85 32H1683.46L1695.16 11Z" fill="#B3000C"/>
<path d="M1695.16 19L1710.31 46.75H1680L1695.16 19Z" fill="#B3000C"/>
<path d="M1691.66 46H1698.66V60H1691.66V46Z" fill="#B3000C"/>
<path d="M1725.16 4L1734.25 21.25H1716.06L1725.16 4Z" fill="#B3000C"/>
<path d="M1725.16 11L1736.85 32H1713.46L1725.16 11Z" fill="#B3000C"/>
<path d="M1725.16 19L1740.31 46.75H1710L1725.16 19Z" fill="#B3000C"/>
<path d="M1721.66 46H1728.66V60H1721.66V46Z" fill="#B3000C"/>
<path d="M1755.16 4L1764.25 21.25H1746.06L1755.16 4Z" fill="#B3000C"/>
<path d="M1755.16 11L1766.85 32H1743.46L1755.16 11Z" fill="#B3000C"/>
<path d="M1755.16 19L1770.31 46.75H1740L1755.16 19Z" fill="#B3000C"/>
<path d="M1751.66 46H1758.66V60H1751.66V46Z" fill="#B3000C"/>
<path d="M1785.16 4L1794.25 21.25H1776.06L1785.16 4Z" fill="#B3000C"/>
<path d="M1785.16 11L1796.85 32H1773.46L1785.16 11Z" fill="#B3000C"/>
<path d="M1785.16 19L1800.31 46.75H1770L1785.16 19Z" fill="#B3000C"/>
<path d="M1781.66 46H1788.66V60H1781.66V46Z" fill="#B3000C"/>
<path d="M1815.16 4L1824.25 21.25H1806.06L1815.16 4Z" fill="#B3000C"/>
<path d="M1815.16 11L1826.85 32H1803.46L1815.16 11Z" fill="#B3000C"/>
<path d="M1815.16 19L1830.31 46.75H1800L1815.16 19Z" fill="#B3000C"/>
<path d="M1811.66 46H1818.66V60H1811.66V46Z" fill="#B3000C"/>
<path d="M1845.16 4L1854.25 21.25H1836.06L1845.16 4Z" fill="#B3000C"/>
<path d="M1845.16 11L1856.85 32H1833.46L1845.16 11Z" fill="#B3000C"/>
<path d="M1845.16 19L1860.31 46.75H1830L1845.16 19Z" fill="#B3000C"/>
<path d="M1841.66 46H1848.66V60H1841.66V46Z" fill="#B3000C"/>
<path d="M1875.16 4L1884.25 21.25H1866.06L1875.16 4Z" fill="#B3000C"/>
<path d="M1875.16 11L1886.85 32H1863.46L1875.16 11Z" fill="#B3000C"/>
<path d="M1875.16 19L1890.31 46.75H1860L1875.16 19Z" fill="#B3000C"/>
<path d="M1871.66 46H1878.66V60H1871.66V46Z" fill="#B3000C"/>
<path d="M1905.16 4L1914.25 21.25H1896.06L1905.16 4Z" fill="#B3000C"/>
<path d="M1905.16 11L1916.85 32H1893.46L1905.16 11Z" fill="#B3000C"/>
<path d="M1905.16 19L1920.31 46.75H1890L1905.16 19Z" fill="#B3000C"/>
<path d="M1901.66 46H1908.66V60H1901.66V46Z" fill="#B3000C"/>
</g>
<defs>
<clipPath id="clip0_19_5696">
<rect width="1920" height="64" fill="white"/>
</clipPath>
</defs>
</svg>
