<svg width="1920" height="64" viewBox="0 0 1920 64" fill="none" xmlns="http://www.w3.org/2000/svg">
<g clip-path="url(#clip0_19_5688)">
<rect width="1920" height="64" fill="#F5F5F5"/>
<line x1="1920" y1="2.00012" x2="-1.74846e-07" y2="1.99995" stroke="#B3000C" stroke-width="4"/>
<line x1="1920" y1="34.0002" x2="-1.74846e-07" y2="34" stroke="#B3000C" stroke-width="4"/>
<line y1="62" x2="1920" y2="62" stroke="#B3000C" stroke-width="4"/>
<mask id="path-4-inside-1_19_5688" fill="white">
<path d="M20 18C20 22.4183 16.4183 26 12 26C7.58172 26 4 22.4183 4 18C4 13.5817 7.58172 10 12 10C16.4183 10 20 13.5817 20 18Z"/>
<path d="M44 18C44 22.4183 40.4183 26 36 26C31.5817 26 28 22.4183 28 18C28 13.5817 31.5817 10 36 10C40.4183 10 44 13.5817 44 18Z"/>
<path d="M68 18C68 22.4183 64.4183 26 60 26C55.5817 26 52 22.4183 52 18C52 13.5817 55.5817 10 60 10C64.4183 10 68 13.5817 68 18Z"/>
<path d="M92 18C92 22.4183 88.4183 26 84 26C79.5817 26 76 22.4183 76 18C76 13.5817 79.5817 10 84 10C88.4183 10 92 13.5817 92 18Z"/>
<path d="M116 18C116 22.4183 112.418 26 108 26C103.582 26 100 22.4183 100 18C100 13.5817 103.582 10 108 10C112.418 10 116 13.5817 116 18Z"/>
<path d="M140 18C140 22.4183 136.418 26 132 26C127.582 26 124 22.4183 124 18C124 13.5817 127.582 10 132 10C136.418 10 140 13.5817 140 18Z"/>
<path d="M164 18C164 22.4183 160.418 26 156 26C151.582 26 148 22.4183 148 18C148 13.5817 151.582 10 156 10C160.418 10 164 13.5817 164 18Z"/>
<path d="M188 18C188 22.4183 184.418 26 180 26C175.582 26 172 22.4183 172 18C172 13.5817 175.582 10 180 10C184.418 10 188 13.5817 188 18Z"/>
<path d="M212 18C212 22.4183 208.418 26 204 26C199.582 26 196 22.4183 196 18C196 13.5817 199.582 10 204 10C208.418 10 212 13.5817 212 18Z"/>
<path d="M236 18C236 22.4183 232.418 26 228 26C223.582 26 220 22.4183 220 18C220 13.5817 223.582 10 228 10C232.418 10 236 13.5817 236 18Z"/>
<path d="M260 18C260 22.4183 256.418 26 252 26C247.582 26 244 22.4183 244 18C244 13.5817 247.582 10 252 10C256.418 10 260 13.5817 260 18Z"/>
<path d="M284 18C284 22.4183 280.418 26 276 26C271.582 26 268 22.4183 268 18C268 13.5817 271.582 10 276 10C280.418 10 284 13.5817 284 18Z"/>
<path d="M308 18C308 22.4183 304.418 26 300 26C295.582 26 292 22.4183 292 18C292 13.5817 295.582 10 300 10C304.418 10 308 13.5817 308 18Z"/>
<path d="M332 18C332 22.4183 328.418 26 324 26C319.582 26 316 22.4183 316 18C316 13.5817 319.582 10 324 10C328.418 10 332 13.5817 332 18Z"/>
<path d="M356 18C356 22.4183 352.418 26 348 26C343.582 26 340 22.4183 340 18C340 13.5817 343.582 10 348 10C352.418 10 356 13.5817 356 18Z"/>
<path d="M380 18C380 22.4183 376.418 26 372 26C367.582 26 364 22.4183 364 18C364 13.5817 367.582 10 372 10C376.418 10 380 13.5817 380 18Z"/>
<path d="M404 18C404 22.4183 400.418 26 396 26C391.582 26 388 22.4183 388 18C388 13.5817 391.582 10 396 10C400.418 10 404 13.5817 404 18Z"/>
<path d="M428 18C428 22.4183 424.418 26 420 26C415.582 26 412 22.4183 412 18C412 13.5817 415.582 10 420 10C424.418 10 428 13.5817 428 18Z"/>
<path d="M452 18C452 22.4183 448.418 26 444 26C439.582 26 436 22.4183 436 18C436 13.5817 439.582 10 444 10C448.418 10 452 13.5817 452 18Z"/>
<path d="M476 18C476 22.4183 472.418 26 468 26C463.582 26 460 22.4183 460 18C460 13.5817 463.582 10 468 10C472.418 10 476 13.5817 476 18Z"/>
<path d="M500 18C500 22.4183 496.418 26 492 26C487.582 26 484 22.4183 484 18C484 13.5817 487.582 10 492 10C496.418 10 500 13.5817 500 18Z"/>
<path d="M524 18C524 22.4183 520.418 26 516 26C511.582 26 508 22.4183 508 18C508 13.5817 511.582 10 516 10C520.418 10 524 13.5817 524 18Z"/>
<path d="M548 18C548 22.4183 544.418 26 540 26C535.582 26 532 22.4183 532 18C532 13.5817 535.582 10 540 10C544.418 10 548 13.5817 548 18Z"/>
<path d="M572 18C572 22.4183 568.418 26 564 26C559.582 26 556 22.4183 556 18C556 13.5817 559.582 10 564 10C568.418 10 572 13.5817 572 18Z"/>
<path d="M596 18C596 22.4183 592.418 26 588 26C583.582 26 580 22.4183 580 18C580 13.5817 583.582 10 588 10C592.418 10 596 13.5817 596 18Z"/>
<path d="M620 18C620 22.4183 616.418 26 612 26C607.582 26 604 22.4183 604 18C604 13.5817 607.582 10 612 10C616.418 10 620 13.5817 620 18Z"/>
<path d="M644 18C644 22.4183 640.418 26 636 26C631.582 26 628 22.4183 628 18C628 13.5817 631.582 10 636 10C640.418 10 644 13.5817 644 18Z"/>
<path d="M668 18C668 22.4183 664.418 26 660 26C655.582 26 652 22.4183 652 18C652 13.5817 655.582 10 660 10C664.418 10 668 13.5817 668 18Z"/>
<path d="M692 18C692 22.4183 688.418 26 684 26C679.582 26 676 22.4183 676 18C676 13.5817 679.582 10 684 10C688.418 10 692 13.5817 692 18Z"/>
<path d="M716 18C716 22.4183 712.418 26 708 26C703.582 26 700 22.4183 700 18C700 13.5817 703.582 10 708 10C712.418 10 716 13.5817 716 18Z"/>
<path d="M740 18C740 22.4183 736.418 26 732 26C727.582 26 724 22.4183 724 18C724 13.5817 727.582 10 732 10C736.418 10 740 13.5817 740 18Z"/>
<path d="M764 18C764 22.4183 760.418 26 756 26C751.582 26 748 22.4183 748 18C748 13.5817 751.582 10 756 10C760.418 10 764 13.5817 764 18Z"/>
<path d="M788 18C788 22.4183 784.418 26 780 26C775.582 26 772 22.4183 772 18C772 13.5817 775.582 10 780 10C784.418 10 788 13.5817 788 18Z"/>
<path d="M812 18C812 22.4183 808.418 26 804 26C799.582 26 796 22.4183 796 18C796 13.5817 799.582 10 804 10C808.418 10 812 13.5817 812 18Z"/>
<path d="M836 18C836 22.4183 832.418 26 828 26C823.582 26 820 22.4183 820 18C820 13.5817 823.582 10 828 10C832.418 10 836 13.5817 836 18Z"/>
<path d="M860 18C860 22.4183 856.418 26 852 26C847.582 26 844 22.4183 844 18C844 13.5817 847.582 10 852 10C856.418 10 860 13.5817 860 18Z"/>
<path d="M884 18C884 22.4183 880.418 26 876 26C871.582 26 868 22.4183 868 18C868 13.5817 871.582 10 876 10C880.418 10 884 13.5817 884 18Z"/>
<path d="M908 18C908 22.4183 904.418 26 900 26C895.582 26 892 22.4183 892 18C892 13.5817 895.582 10 900 10C904.418 10 908 13.5817 908 18Z"/>
<path d="M932 18C932 22.4183 928.418 26 924 26C919.582 26 916 22.4183 916 18C916 13.5817 919.582 10 924 10C928.418 10 932 13.5817 932 18Z"/>
<path d="M956 18C956 22.4183 952.418 26 948 26C943.582 26 940 22.4183 940 18C940 13.5817 943.582 10 948 10C952.418 10 956 13.5817 956 18Z"/>
<path d="M980 18C980 22.4183 976.418 26 972 26C967.582 26 964 22.4183 964 18C964 13.5817 967.582 10 972 10C976.418 10 980 13.5817 980 18Z"/>
<path d="M1004 18C1004 22.4183 1000.42 26 996 26C991.582 26 988 22.4183 988 18C988 13.5817 991.582 10 996 10C1000.42 10 1004 13.5817 1004 18Z"/>
<path d="M1028 18C1028 22.4183 1024.42 26 1020 26C1015.58 26 1012 22.4183 1012 18C1012 13.5817 1015.58 10 1020 10C1024.42 10 1028 13.5817 1028 18Z"/>
<path d="M1052 18C1052 22.4183 1048.42 26 1044 26C1039.58 26 1036 22.4183 1036 18C1036 13.5817 1039.58 10 1044 10C1048.42 10 1052 13.5817 1052 18Z"/>
<path d="M1076 18C1076 22.4183 1072.42 26 1068 26C1063.58 26 1060 22.4183 1060 18C1060 13.5817 1063.58 10 1068 10C1072.42 10 1076 13.5817 1076 18Z"/>
<path d="M1100 18C1100 22.4183 1096.42 26 1092 26C1087.58 26 1084 22.4183 1084 18C1084 13.5817 1087.58 10 1092 10C1096.42 10 1100 13.5817 1100 18Z"/>
<path d="M1124 18C1124 22.4183 1120.42 26 1116 26C1111.58 26 1108 22.4183 1108 18C1108 13.5817 1111.58 10 1116 10C1120.42 10 1124 13.5817 1124 18Z"/>
<path d="M1148 18C1148 22.4183 1144.42 26 1140 26C1135.58 26 1132 22.4183 1132 18C1132 13.5817 1135.58 10 1140 10C1144.42 10 1148 13.5817 1148 18Z"/>
<path d="M1172 18C1172 22.4183 1168.42 26 1164 26C1159.58 26 1156 22.4183 1156 18C1156 13.5817 1159.58 10 1164 10C1168.42 10 1172 13.5817 1172 18Z"/>
<path d="M1196 18C1196 22.4183 1192.42 26 1188 26C1183.58 26 1180 22.4183 1180 18C1180 13.5817 1183.58 10 1188 10C1192.42 10 1196 13.5817 1196 18Z"/>
<path d="M1220 18C1220 22.4183 1216.42 26 1212 26C1207.58 26 1204 22.4183 1204 18C1204 13.5817 1207.58 10 1212 10C1216.42 10 1220 13.5817 1220 18Z"/>
<path d="M1244 18C1244 22.4183 1240.42 26 1236 26C1231.58 26 1228 22.4183 1228 18C1228 13.5817 1231.58 10 1236 10C1240.42 10 1244 13.5817 1244 18Z"/>
<path d="M1268 18C1268 22.4183 1264.42 26 1260 26C1255.58 26 1252 22.4183 1252 18C1252 13.5817 1255.58 10 1260 10C1264.42 10 1268 13.5817 1268 18Z"/>
<path d="M1292 18C1292 22.4183 1288.42 26 1284 26C1279.58 26 1276 22.4183 1276 18C1276 13.5817 1279.58 10 1284 10C1288.42 10 1292 13.5817 1292 18Z"/>
<path d="M1316 18C1316 22.4183 1312.42 26 1308 26C1303.58 26 1300 22.4183 1300 18C1300 13.5817 1303.58 10 1308 10C1312.42 10 1316 13.5817 1316 18Z"/>
<path d="M1340 18C1340 22.4183 1336.42 26 1332 26C1327.58 26 1324 22.4183 1324 18C1324 13.5817 1327.58 10 1332 10C1336.42 10 1340 13.5817 1340 18Z"/>
<path d="M1364 18C1364 22.4183 1360.42 26 1356 26C1351.58 26 1348 22.4183 1348 18C1348 13.5817 1351.58 10 1356 10C1360.42 10 1364 13.5817 1364 18Z"/>
<path d="M1388 18C1388 22.4183 1384.42 26 1380 26C1375.58 26 1372 22.4183 1372 18C1372 13.5817 1375.58 10 1380 10C1384.42 10 1388 13.5817 1388 18Z"/>
<path d="M1412 18C1412 22.4183 1408.42 26 1404 26C1399.58 26 1396 22.4183 1396 18C1396 13.5817 1399.58 10 1404 10C1408.42 10 1412 13.5817 1412 18Z"/>
<path d="M1436 18C1436 22.4183 1432.42 26 1428 26C1423.58 26 1420 22.4183 1420 18C1420 13.5817 1423.58 10 1428 10C1432.42 10 1436 13.5817 1436 18Z"/>
<path d="M1460 18C1460 22.4183 1456.42 26 1452 26C1447.58 26 1444 22.4183 1444 18C1444 13.5817 1447.58 10 1452 10C1456.42 10 1460 13.5817 1460 18Z"/>
<path d="M1484 18C1484 22.4183 1480.42 26 1476 26C1471.58 26 1468 22.4183 1468 18C1468 13.5817 1471.58 10 1476 10C1480.42 10 1484 13.5817 1484 18Z"/>
<path d="M1508 18C1508 22.4183 1504.42 26 1500 26C1495.58 26 1492 22.4183 1492 18C1492 13.5817 1495.58 10 1500 10C1504.42 10 1508 13.5817 1508 18Z"/>
<path d="M1532 18C1532 22.4183 1528.42 26 1524 26C1519.58 26 1516 22.4183 1516 18C1516 13.5817 1519.58 10 1524 10C1528.42 10 1532 13.5817 1532 18Z"/>
<path d="M1556 18C1556 22.4183 1552.42 26 1548 26C1543.58 26 1540 22.4183 1540 18C1540 13.5817 1543.58 10 1548 10C1552.42 10 1556 13.5817 1556 18Z"/>
<path d="M1580 18C1580 22.4183 1576.42 26 1572 26C1567.58 26 1564 22.4183 1564 18C1564 13.5817 1567.58 10 1572 10C1576.42 10 1580 13.5817 1580 18Z"/>
<path d="M1604 18C1604 22.4183 1600.42 26 1596 26C1591.58 26 1588 22.4183 1588 18C1588 13.5817 1591.58 10 1596 10C1600.42 10 1604 13.5817 1604 18Z"/>
<path d="M1628 18C1628 22.4183 1624.42 26 1620 26C1615.58 26 1612 22.4183 1612 18C1612 13.5817 1615.58 10 1620 10C1624.42 10 1628 13.5817 1628 18Z"/>
<path d="M1652 18C1652 22.4183 1648.42 26 1644 26C1639.58 26 1636 22.4183 1636 18C1636 13.5817 1639.58 10 1644 10C1648.42 10 1652 13.5817 1652 18Z"/>
<path d="M1676 18C1676 22.4183 1672.42 26 1668 26C1663.58 26 1660 22.4183 1660 18C1660 13.5817 1663.58 10 1668 10C1672.42 10 1676 13.5817 1676 18Z"/>
<path d="M1700 18C1700 22.4183 1696.42 26 1692 26C1687.58 26 1684 22.4183 1684 18C1684 13.5817 1687.58 10 1692 10C1696.42 10 1700 13.5817 1700 18Z"/>
<path d="M1724 18C1724 22.4183 1720.42 26 1716 26C1711.58 26 1708 22.4183 1708 18C1708 13.5817 1711.58 10 1716 10C1720.42 10 1724 13.5817 1724 18Z"/>
<path d="M1748 18C1748 22.4183 1744.42 26 1740 26C1735.58 26 1732 22.4183 1732 18C1732 13.5817 1735.58 10 1740 10C1744.42 10 1748 13.5817 1748 18Z"/>
<path d="M1772 18C1772 22.4183 1768.42 26 1764 26C1759.58 26 1756 22.4183 1756 18C1756 13.5817 1759.58 10 1764 10C1768.42 10 1772 13.5817 1772 18Z"/>
<path d="M1796 18C1796 22.4183 1792.42 26 1788 26C1783.58 26 1780 22.4183 1780 18C1780 13.5817 1783.58 10 1788 10C1792.42 10 1796 13.5817 1796 18Z"/>
<path d="M1820 18C1820 22.4183 1816.42 26 1812 26C1807.58 26 1804 22.4183 1804 18C1804 13.5817 1807.58 10 1812 10C1816.42 10 1820 13.5817 1820 18Z"/>
<path d="M1844 18C1844 22.4183 1840.42 26 1836 26C1831.58 26 1828 22.4183 1828 18C1828 13.5817 1831.58 10 1836 10C1840.42 10 1844 13.5817 1844 18Z"/>
<path d="M1868 18C1868 22.4183 1864.42 26 1860 26C1855.58 26 1852 22.4183 1852 18C1852 13.5817 1855.58 10 1860 10C1864.42 10 1868 13.5817 1868 18Z"/>
<path d="M1892 18C1892 22.4183 1888.42 26 1884 26C1879.58 26 1876 22.4183 1876 18C1876 13.5817 1879.58 10 1884 10C1888.42 10 1892 13.5817 1892 18Z"/>
<path d="M1916 18C1916 22.4183 1912.42 26 1908 26C1903.58 26 1900 22.4183 1900 18C1900 13.5817 1903.58 10 1908 10C1912.42 10 1916 13.5817 1916 18Z"/>
</mask>
<path d="M20 18C20 22.4183 16.4183 26 12 26C7.58172 26 4 22.4183 4 18C4 13.5817 7.58172 10 12 10C16.4183 10 20 13.5817 20 18Z" stroke="#B3000C" stroke-width="6" mask="url(#path-4-inside-1_19_5688)"/>
<path d="M44 18C44 22.4183 40.4183 26 36 26C31.5817 26 28 22.4183 28 18C28 13.5817 31.5817 10 36 10C40.4183 10 44 13.5817 44 18Z" stroke="#B3000C" stroke-width="6" mask="url(#path-4-inside-1_19_5688)"/>
<path d="M68 18C68 22.4183 64.4183 26 60 26C55.5817 26 52 22.4183 52 18C52 13.5817 55.5817 10 60 10C64.4183 10 68 13.5817 68 18Z" stroke="#B3000C" stroke-width="6" mask="url(#path-4-inside-1_19_5688)"/>
<path d="M92 18C92 22.4183 88.4183 26 84 26C79.5817 26 76 22.4183 76 18C76 13.5817 79.5817 10 84 10C88.4183 10 92 13.5817 92 18Z" stroke="#B3000C" stroke-width="6" mask="url(#path-4-inside-1_19_5688)"/>
<path d="M116 18C116 22.4183 112.418 26 108 26C103.582 26 100 22.4183 100 18C100 13.5817 103.582 10 108 10C112.418 10 116 13.5817 116 18Z" stroke="#B3000C" stroke-width="6" mask="url(#path-4-inside-1_19_5688)"/>
<path d="M140 18C140 22.4183 136.418 26 132 26C127.582 26 124 22.4183 124 18C124 13.5817 127.582 10 132 10C136.418 10 140 13.5817 140 18Z" stroke="#B3000C" stroke-width="6" mask="url(#path-4-inside-1_19_5688)"/>
<path d="M164 18C164 22.4183 160.418 26 156 26C151.582 26 148 22.4183 148 18C148 13.5817 151.582 10 156 10C160.418 10 164 13.5817 164 18Z" stroke="#B3000C" stroke-width="6" mask="url(#path-4-inside-1_19_5688)"/>
<path d="M188 18C188 22.4183 184.418 26 180 26C175.582 26 172 22.4183 172 18C172 13.5817 175.582 10 180 10C184.418 10 188 13.5817 188 18Z" stroke="#B3000C" stroke-width="6" mask="url(#path-4-inside-1_19_5688)"/>
<path d="M212 18C212 22.4183 208.418 26 204 26C199.582 26 196 22.4183 196 18C196 13.5817 199.582 10 204 10C208.418 10 212 13.5817 212 18Z" stroke="#B3000C" stroke-width="6" mask="url(#path-4-inside-1_19_5688)"/>
<path d="M236 18C236 22.4183 232.418 26 228 26C223.582 26 220 22.4183 220 18C220 13.5817 223.582 10 228 10C232.418 10 236 13.5817 236 18Z" stroke="#B3000C" stroke-width="6" mask="url(#path-4-inside-1_19_5688)"/>
<path d="M260 18C260 22.4183 256.418 26 252 26C247.582 26 244 22.4183 244 18C244 13.5817 247.582 10 252 10C256.418 10 260 13.5817 260 18Z" stroke="#B3000C" stroke-width="6" mask="url(#path-4-inside-1_19_5688)"/>
<path d="M284 18C284 22.4183 280.418 26 276 26C271.582 26 268 22.4183 268 18C268 13.5817 271.582 10 276 10C280.418 10 284 13.5817 284 18Z" stroke="#B3000C" stroke-width="6" mask="url(#path-4-inside-1_19_5688)"/>
<path d="M308 18C308 22.4183 304.418 26 300 26C295.582 26 292 22.4183 292 18C292 13.5817 295.582 10 300 10C304.418 10 308 13.5817 308 18Z" stroke="#B3000C" stroke-width="6" mask="url(#path-4-inside-1_19_5688)"/>
<path d="M332 18C332 22.4183 328.418 26 324 26C319.582 26 316 22.4183 316 18C316 13.5817 319.582 10 324 10C328.418 10 332 13.5817 332 18Z" stroke="#B3000C" stroke-width="6" mask="url(#path-4-inside-1_19_5688)"/>
<path d="M356 18C356 22.4183 352.418 26 348 26C343.582 26 340 22.4183 340 18C340 13.5817 343.582 10 348 10C352.418 10 356 13.5817 356 18Z" stroke="#B3000C" stroke-width="6" mask="url(#path-4-inside-1_19_5688)"/>
<path d="M380 18C380 22.4183 376.418 26 372 26C367.582 26 364 22.4183 364 18C364 13.5817 367.582 10 372 10C376.418 10 380 13.5817 380 18Z" stroke="#B3000C" stroke-width="6" mask="url(#path-4-inside-1_19_5688)"/>
<path d="M404 18C404 22.4183 400.418 26 396 26C391.582 26 388 22.4183 388 18C388 13.5817 391.582 10 396 10C400.418 10 404 13.5817 404 18Z" stroke="#B3000C" stroke-width="6" mask="url(#path-4-inside-1_19_5688)"/>
<path d="M428 18C428 22.4183 424.418 26 420 26C415.582 26 412 22.4183 412 18C412 13.5817 415.582 10 420 10C424.418 10 428 13.5817 428 18Z" stroke="#B3000C" stroke-width="6" mask="url(#path-4-inside-1_19_5688)"/>
<path d="M452 18C452 22.4183 448.418 26 444 26C439.582 26 436 22.4183 436 18C436 13.5817 439.582 10 444 10C448.418 10 452 13.5817 452 18Z" stroke="#B3000C" stroke-width="6" mask="url(#path-4-inside-1_19_5688)"/>
<path d="M476 18C476 22.4183 472.418 26 468 26C463.582 26 460 22.4183 460 18C460 13.5817 463.582 10 468 10C472.418 10 476 13.5817 476 18Z" stroke="#B3000C" stroke-width="6" mask="url(#path-4-inside-1_19_5688)"/>
<path d="M500 18C500 22.4183 496.418 26 492 26C487.582 26 484 22.4183 484 18C484 13.5817 487.582 10 492 10C496.418 10 500 13.5817 500 18Z" stroke="#B3000C" stroke-width="6" mask="url(#path-4-inside-1_19_5688)"/>
<path d="M524 18C524 22.4183 520.418 26 516 26C511.582 26 508 22.4183 508 18C508 13.5817 511.582 10 516 10C520.418 10 524 13.5817 524 18Z" stroke="#B3000C" stroke-width="6" mask="url(#path-4-inside-1_19_5688)"/>
<path d="M548 18C548 22.4183 544.418 26 540 26C535.582 26 532 22.4183 532 18C532 13.5817 535.582 10 540 10C544.418 10 548 13.5817 548 18Z" stroke="#B3000C" stroke-width="6" mask="url(#path-4-inside-1_19_5688)"/>
<path d="M572 18C572 22.4183 568.418 26 564 26C559.582 26 556 22.4183 556 18C556 13.5817 559.582 10 564 10C568.418 10 572 13.5817 572 18Z" stroke="#B3000C" stroke-width="6" mask="url(#path-4-inside-1_19_5688)"/>
<path d="M596 18C596 22.4183 592.418 26 588 26C583.582 26 580 22.4183 580 18C580 13.5817 583.582 10 588 10C592.418 10 596 13.5817 596 18Z" stroke="#B3000C" stroke-width="6" mask="url(#path-4-inside-1_19_5688)"/>
<path d="M620 18C620 22.4183 616.418 26 612 26C607.582 26 604 22.4183 604 18C604 13.5817 607.582 10 612 10C616.418 10 620 13.5817 620 18Z" stroke="#B3000C" stroke-width="6" mask="url(#path-4-inside-1_19_5688)"/>
<path d="M644 18C644 22.4183 640.418 26 636 26C631.582 26 628 22.4183 628 18C628 13.5817 631.582 10 636 10C640.418 10 644 13.5817 644 18Z" stroke="#B3000C" stroke-width="6" mask="url(#path-4-inside-1_19_5688)"/>
<path d="M668 18C668 22.4183 664.418 26 660 26C655.582 26 652 22.4183 652 18C652 13.5817 655.582 10 660 10C664.418 10 668 13.5817 668 18Z" stroke="#B3000C" stroke-width="6" mask="url(#path-4-inside-1_19_5688)"/>
<path d="M692 18C692 22.4183 688.418 26 684 26C679.582 26 676 22.4183 676 18C676 13.5817 679.582 10 684 10C688.418 10 692 13.5817 692 18Z" stroke="#B3000C" stroke-width="6" mask="url(#path-4-inside-1_19_5688)"/>
<path d="M716 18C716 22.4183 712.418 26 708 26C703.582 26 700 22.4183 700 18C700 13.5817 703.582 10 708 10C712.418 10 716 13.5817 716 18Z" stroke="#B3000C" stroke-width="6" mask="url(#path-4-inside-1_19_5688)"/>
<path d="M740 18C740 22.4183 736.418 26 732 26C727.582 26 724 22.4183 724 18C724 13.5817 727.582 10 732 10C736.418 10 740 13.5817 740 18Z" stroke="#B3000C" stroke-width="6" mask="url(#path-4-inside-1_19_5688)"/>
<path d="M764 18C764 22.4183 760.418 26 756 26C751.582 26 748 22.4183 748 18C748 13.5817 751.582 10 756 10C760.418 10 764 13.5817 764 18Z" stroke="#B3000C" stroke-width="6" mask="url(#path-4-inside-1_19_5688)"/>
<path d="M788 18C788 22.4183 784.418 26 780 26C775.582 26 772 22.4183 772 18C772 13.5817 775.582 10 780 10C784.418 10 788 13.5817 788 18Z" stroke="#B3000C" stroke-width="6" mask="url(#path-4-inside-1_19_5688)"/>
<path d="M812 18C812 22.4183 808.418 26 804 26C799.582 26 796 22.4183 796 18C796 13.5817 799.582 10 804 10C808.418 10 812 13.5817 812 18Z" stroke="#B3000C" stroke-width="6" mask="url(#path-4-inside-1_19_5688)"/>
<path d="M836 18C836 22.4183 832.418 26 828 26C823.582 26 820 22.4183 820 18C820 13.5817 823.582 10 828 10C832.418 10 836 13.5817 836 18Z" stroke="#B3000C" stroke-width="6" mask="url(#path-4-inside-1_19_5688)"/>
<path d="M860 18C860 22.4183 856.418 26 852 26C847.582 26 844 22.4183 844 18C844 13.5817 847.582 10 852 10C856.418 10 860 13.5817 860 18Z" stroke="#B3000C" stroke-width="6" mask="url(#path-4-inside-1_19_5688)"/>
<path d="M884 18C884 22.4183 880.418 26 876 26C871.582 26 868 22.4183 868 18C868 13.5817 871.582 10 876 10C880.418 10 884 13.5817 884 18Z" stroke="#B3000C" stroke-width="6" mask="url(#path-4-inside-1_19_5688)"/>
<path d="M908 18C908 22.4183 904.418 26 900 26C895.582 26 892 22.4183 892 18C892 13.5817 895.582 10 900 10C904.418 10 908 13.5817 908 18Z" stroke="#B3000C" stroke-width="6" mask="url(#path-4-inside-1_19_5688)"/>
<path d="M932 18C932 22.4183 928.418 26 924 26C919.582 26 916 22.4183 916 18C916 13.5817 919.582 10 924 10C928.418 10 932 13.5817 932 18Z" stroke="#B3000C" stroke-width="6" mask="url(#path-4-inside-1_19_5688)"/>
<path d="M956 18C956 22.4183 952.418 26 948 26C943.582 26 940 22.4183 940 18C940 13.5817 943.582 10 948 10C952.418 10 956 13.5817 956 18Z" stroke="#B3000C" stroke-width="6" mask="url(#path-4-inside-1_19_5688)"/>
<path d="M980 18C980 22.4183 976.418 26 972 26C967.582 26 964 22.4183 964 18C964 13.5817 967.582 10 972 10C976.418 10 980 13.5817 980 18Z" stroke="#B3000C" stroke-width="6" mask="url(#path-4-inside-1_19_5688)"/>
<path d="M1004 18C1004 22.4183 1000.42 26 996 26C991.582 26 988 22.4183 988 18C988 13.5817 991.582 10 996 10C1000.42 10 1004 13.5817 1004 18Z" stroke="#B3000C" stroke-width="6" mask="url(#path-4-inside-1_19_5688)"/>
<path d="M1028 18C1028 22.4183 1024.42 26 1020 26C1015.58 26 1012 22.4183 1012 18C1012 13.5817 1015.58 10 1020 10C1024.42 10 1028 13.5817 1028 18Z" stroke="#B3000C" stroke-width="6" mask="url(#path-4-inside-1_19_5688)"/>
<path d="M1052 18C1052 22.4183 1048.42 26 1044 26C1039.58 26 1036 22.4183 1036 18C1036 13.5817 1039.58 10 1044 10C1048.42 10 1052 13.5817 1052 18Z" stroke="#B3000C" stroke-width="6" mask="url(#path-4-inside-1_19_5688)"/>
<path d="M1076 18C1076 22.4183 1072.42 26 1068 26C1063.58 26 1060 22.4183 1060 18C1060 13.5817 1063.58 10 1068 10C1072.42 10 1076 13.5817 1076 18Z" stroke="#B3000C" stroke-width="6" mask="url(#path-4-inside-1_19_5688)"/>
<path d="M1100 18C1100 22.4183 1096.42 26 1092 26C1087.58 26 1084 22.4183 1084 18C1084 13.5817 1087.58 10 1092 10C1096.42 10 1100 13.5817 1100 18Z" stroke="#B3000C" stroke-width="6" mask="url(#path-4-inside-1_19_5688)"/>
<path d="M1124 18C1124 22.4183 1120.42 26 1116 26C1111.58 26 1108 22.4183 1108 18C1108 13.5817 1111.58 10 1116 10C1120.42 10 1124 13.5817 1124 18Z" stroke="#B3000C" stroke-width="6" mask="url(#path-4-inside-1_19_5688)"/>
<path d="M1148 18C1148 22.4183 1144.42 26 1140 26C1135.58 26 1132 22.4183 1132 18C1132 13.5817 1135.58 10 1140 10C1144.42 10 1148 13.5817 1148 18Z" stroke="#B3000C" stroke-width="6" mask="url(#path-4-inside-1_19_5688)"/>
<path d="M1172 18C1172 22.4183 1168.42 26 1164 26C1159.58 26 1156 22.4183 1156 18C1156 13.5817 1159.58 10 1164 10C1168.42 10 1172 13.5817 1172 18Z" stroke="#B3000C" stroke-width="6" mask="url(#path-4-inside-1_19_5688)"/>
<path d="M1196 18C1196 22.4183 1192.42 26 1188 26C1183.58 26 1180 22.4183 1180 18C1180 13.5817 1183.58 10 1188 10C1192.42 10 1196 13.5817 1196 18Z" stroke="#B3000C" stroke-width="6" mask="url(#path-4-inside-1_19_5688)"/>
<path d="M1220 18C1220 22.4183 1216.42 26 1212 26C1207.58 26 1204 22.4183 1204 18C1204 13.5817 1207.58 10 1212 10C1216.42 10 1220 13.5817 1220 18Z" stroke="#B3000C" stroke-width="6" mask="url(#path-4-inside-1_19_5688)"/>
<path d="M1244 18C1244 22.4183 1240.42 26 1236 26C1231.58 26 1228 22.4183 1228 18C1228 13.5817 1231.58 10 1236 10C1240.42 10 1244 13.5817 1244 18Z" stroke="#B3000C" stroke-width="6" mask="url(#path-4-inside-1_19_5688)"/>
<path d="M1268 18C1268 22.4183 1264.42 26 1260 26C1255.58 26 1252 22.4183 1252 18C1252 13.5817 1255.58 10 1260 10C1264.42 10 1268 13.5817 1268 18Z" stroke="#B3000C" stroke-width="6" mask="url(#path-4-inside-1_19_5688)"/>
<path d="M1292 18C1292 22.4183 1288.42 26 1284 26C1279.58 26 1276 22.4183 1276 18C1276 13.5817 1279.58 10 1284 10C1288.42 10 1292 13.5817 1292 18Z" stroke="#B3000C" stroke-width="6" mask="url(#path-4-inside-1_19_5688)"/>
<path d="M1316 18C1316 22.4183 1312.42 26 1308 26C1303.58 26 1300 22.4183 1300 18C1300 13.5817 1303.58 10 1308 10C1312.42 10 1316 13.5817 1316 18Z" stroke="#B3000C" stroke-width="6" mask="url(#path-4-inside-1_19_5688)"/>
<path d="M1340 18C1340 22.4183 1336.42 26 1332 26C1327.58 26 1324 22.4183 1324 18C1324 13.5817 1327.58 10 1332 10C1336.42 10 1340 13.5817 1340 18Z" stroke="#B3000C" stroke-width="6" mask="url(#path-4-inside-1_19_5688)"/>
<path d="M1364 18C1364 22.4183 1360.42 26 1356 26C1351.58 26 1348 22.4183 1348 18C1348 13.5817 1351.58 10 1356 10C1360.42 10 1364 13.5817 1364 18Z" stroke="#B3000C" stroke-width="6" mask="url(#path-4-inside-1_19_5688)"/>
<path d="M1388 18C1388 22.4183 1384.42 26 1380 26C1375.58 26 1372 22.4183 1372 18C1372 13.5817 1375.58 10 1380 10C1384.42 10 1388 13.5817 1388 18Z" stroke="#B3000C" stroke-width="6" mask="url(#path-4-inside-1_19_5688)"/>
<path d="M1412 18C1412 22.4183 1408.42 26 1404 26C1399.58 26 1396 22.4183 1396 18C1396 13.5817 1399.58 10 1404 10C1408.42 10 1412 13.5817 1412 18Z" stroke="#B3000C" stroke-width="6" mask="url(#path-4-inside-1_19_5688)"/>
<path d="M1436 18C1436 22.4183 1432.42 26 1428 26C1423.58 26 1420 22.4183 1420 18C1420 13.5817 1423.58 10 1428 10C1432.42 10 1436 13.5817 1436 18Z" stroke="#B3000C" stroke-width="6" mask="url(#path-4-inside-1_19_5688)"/>
<path d="M1460 18C1460 22.4183 1456.42 26 1452 26C1447.58 26 1444 22.4183 1444 18C1444 13.5817 1447.58 10 1452 10C1456.42 10 1460 13.5817 1460 18Z" stroke="#B3000C" stroke-width="6" mask="url(#path-4-inside-1_19_5688)"/>
<path d="M1484 18C1484 22.4183 1480.42 26 1476 26C1471.58 26 1468 22.4183 1468 18C1468 13.5817 1471.58 10 1476 10C1480.42 10 1484 13.5817 1484 18Z" stroke="#B3000C" stroke-width="6" mask="url(#path-4-inside-1_19_5688)"/>
<path d="M1508 18C1508 22.4183 1504.42 26 1500 26C1495.58 26 1492 22.4183 1492 18C1492 13.5817 1495.58 10 1500 10C1504.42 10 1508 13.5817 1508 18Z" stroke="#B3000C" stroke-width="6" mask="url(#path-4-inside-1_19_5688)"/>
<path d="M1532 18C1532 22.4183 1528.42 26 1524 26C1519.58 26 1516 22.4183 1516 18C1516 13.5817 1519.58 10 1524 10C1528.42 10 1532 13.5817 1532 18Z" stroke="#B3000C" stroke-width="6" mask="url(#path-4-inside-1_19_5688)"/>
<path d="M1556 18C1556 22.4183 1552.42 26 1548 26C1543.58 26 1540 22.4183 1540 18C1540 13.5817 1543.58 10 1548 10C1552.42 10 1556 13.5817 1556 18Z" stroke="#B3000C" stroke-width="6" mask="url(#path-4-inside-1_19_5688)"/>
<path d="M1580 18C1580 22.4183 1576.42 26 1572 26C1567.58 26 1564 22.4183 1564 18C1564 13.5817 1567.58 10 1572 10C1576.42 10 1580 13.5817 1580 18Z" stroke="#B3000C" stroke-width="6" mask="url(#path-4-inside-1_19_5688)"/>
<path d="M1604 18C1604 22.4183 1600.42 26 1596 26C1591.58 26 1588 22.4183 1588 18C1588 13.5817 1591.58 10 1596 10C1600.42 10 1604 13.5817 1604 18Z" stroke="#B3000C" stroke-width="6" mask="url(#path-4-inside-1_19_5688)"/>
<path d="M1628 18C1628 22.4183 1624.42 26 1620 26C1615.58 26 1612 22.4183 1612 18C1612 13.5817 1615.58 10 1620 10C1624.42 10 1628 13.5817 1628 18Z" stroke="#B3000C" stroke-width="6" mask="url(#path-4-inside-1_19_5688)"/>
<path d="M1652 18C1652 22.4183 1648.42 26 1644 26C1639.58 26 1636 22.4183 1636 18C1636 13.5817 1639.58 10 1644 10C1648.42 10 1652 13.5817 1652 18Z" stroke="#B3000C" stroke-width="6" mask="url(#path-4-inside-1_19_5688)"/>
<path d="M1676 18C1676 22.4183 1672.42 26 1668 26C1663.58 26 1660 22.4183 1660 18C1660 13.5817 1663.58 10 1668 10C1672.42 10 1676 13.5817 1676 18Z" stroke="#B3000C" stroke-width="6" mask="url(#path-4-inside-1_19_5688)"/>
<path d="M1700 18C1700 22.4183 1696.42 26 1692 26C1687.58 26 1684 22.4183 1684 18C1684 13.5817 1687.58 10 1692 10C1696.42 10 1700 13.5817 1700 18Z" stroke="#B3000C" stroke-width="6" mask="url(#path-4-inside-1_19_5688)"/>
<path d="M1724 18C1724 22.4183 1720.42 26 1716 26C1711.58 26 1708 22.4183 1708 18C1708 13.5817 1711.58 10 1716 10C1720.42 10 1724 13.5817 1724 18Z" stroke="#B3000C" stroke-width="6" mask="url(#path-4-inside-1_19_5688)"/>
<path d="M1748 18C1748 22.4183 1744.42 26 1740 26C1735.58 26 1732 22.4183 1732 18C1732 13.5817 1735.58 10 1740 10C1744.42 10 1748 13.5817 1748 18Z" stroke="#B3000C" stroke-width="6" mask="url(#path-4-inside-1_19_5688)"/>
<path d="M1772 18C1772 22.4183 1768.42 26 1764 26C1759.58 26 1756 22.4183 1756 18C1756 13.5817 1759.58 10 1764 10C1768.42 10 1772 13.5817 1772 18Z" stroke="#B3000C" stroke-width="6" mask="url(#path-4-inside-1_19_5688)"/>
<path d="M1796 18C1796 22.4183 1792.42 26 1788 26C1783.58 26 1780 22.4183 1780 18C1780 13.5817 1783.58 10 1788 10C1792.42 10 1796 13.5817 1796 18Z" stroke="#B3000C" stroke-width="6" mask="url(#path-4-inside-1_19_5688)"/>
<path d="M1820 18C1820 22.4183 1816.42 26 1812 26C1807.58 26 1804 22.4183 1804 18C1804 13.5817 1807.58 10 1812 10C1816.42 10 1820 13.5817 1820 18Z" stroke="#B3000C" stroke-width="6" mask="url(#path-4-inside-1_19_5688)"/>
<path d="M1844 18C1844 22.4183 1840.42 26 1836 26C1831.58 26 1828 22.4183 1828 18C1828 13.5817 1831.58 10 1836 10C1840.42 10 1844 13.5817 1844 18Z" stroke="#B3000C" stroke-width="6" mask="url(#path-4-inside-1_19_5688)"/>
<path d="M1868 18C1868 22.4183 1864.42 26 1860 26C1855.58 26 1852 22.4183 1852 18C1852 13.5817 1855.58 10 1860 10C1864.42 10 1868 13.5817 1868 18Z" stroke="#B3000C" stroke-width="6" mask="url(#path-4-inside-1_19_5688)"/>
<path d="M1892 18C1892 22.4183 1888.42 26 1884 26C1879.58 26 1876 22.4183 1876 18C1876 13.5817 1879.58 10 1884 10C1888.42 10 1892 13.5817 1892 18Z" stroke="#B3000C" stroke-width="6" mask="url(#path-4-inside-1_19_5688)"/>
<path d="M1916 18C1916 22.4183 1912.42 26 1908 26C1903.58 26 1900 22.4183 1900 18C1900 13.5817 1903.58 10 1908 10C1912.42 10 1916 13.5817 1916 18Z" stroke="#B3000C" stroke-width="6" mask="url(#path-4-inside-1_19_5688)"/>
<path d="M-1.41431 60.5858L24.5857 34.5858M-1 35L25 61M25 60.5858L51 34.5858M51.4143 60.5858L77.4143 34.5858M77.8286 60.5858L103.829 34.5858M104.243 60.5858L130.243 34.5858M130.657 60.5858L156.657 34.5858M157.072 60.5858L183.072 34.5858M183.486 60.5858L209.486 34.5858M209.9 60.5858L235.9 34.5858M236.314 60.5858L262.314 34.5858M262.729 60.5858L288.729 34.5858M289.143 60.5858L315.143 34.5858M315.557 60.5858L341.557 34.5858M341.972 60.5858L367.972 34.5858M368.386 60.5858L394.386 34.5858M394.8 60.5858L420.8 34.5858M421.215 60.5858L447.215 34.5858M447.629 60.5858L473.629 34.5858M474.043 60.5858L500.043 34.5858M500.458 60.5858L526.458 34.5858M526.872 60.5858L552.872 34.5858M553.286 60.5858L579.286 34.5858M579.7 60.5858L605.7 34.5858M606.115 60.5858L632.115 34.5858M632.529 60.5858L658.529 34.5858M658.943 60.5858L684.943 34.5858M685.358 60.5858L711.358 34.5858M711.772 60.5858L737.772 34.5858M738.186 60.5858L764.186 34.5858M764.601 60.5858L790.601 34.5858M791.015 60.5858L817.015 34.5858M817.429 60.5858L843.429 34.5858M843.844 60.5858L869.844 34.5858M870.258 60.5858L896.258 34.5858M896.672 60.5858L922.672 34.5858M923.086 60.5858L949.086 34.5858M949.5 60.5858L975.5 34.5858M975.914 60.5858L1001.91 34.5858M1002.33 60.5858L1028.33 34.5858M1028.74 60.5858L1054.74 34.5858M1055.16 60.5858L1081.16 34.5858M1081.57 60.5858L1107.57 34.5858M1107.98 60.5858L1133.98 34.5858M1134.4 60.5858L1160.4 34.5858M1160.81 60.5858L1186.81 34.5858M1187.23 60.5858L1213.23 34.5858M1213.64 60.5858L1239.64 34.5858M1240.05 60.5858L1266.05 34.5858M1266.47 60.5858L1292.47 34.5858M1292.88 60.5858L1318.88 34.5858M1319.3 60.5858L1345.3 34.5858M1345.71 60.5858L1371.71 34.5858M1372.12 60.5858L1398.12 34.5858M1398.54 60.5858L1424.54 34.5858M1424.95 60.5858L1450.95 34.5858M1451.37 60.5858L1477.37 34.5858M1477.78 60.5858L1503.78 34.5858M1504.2 60.5858L1530.2 34.5858M1530.61 60.5858L1556.61 34.5858M1557.02 60.5858L1583.02 34.5858M1583.44 60.5858L1609.44 34.5858M1609.85 60.5858L1635.85 34.5858M1636.27 60.5858L1662.27 34.5858M1662.68 60.5858L1688.68 34.5858M1689.09 60.5858L1715.09 34.5858M1715.51 60.5858L1741.51 34.5858M1741.92 60.5858L1767.92 34.5858M1768.34 60.5858L1794.34 34.5858M1794.75 60.5858L1820.75 34.5858M1821.16 60.5858L1847.16 34.5858M1847.58 60.5858L1873.58 34.5858M1873.99 60.5858L1899.99 34.5858M1900.41 60.5858L1926.41 34.5858M25.4143 35L51.4143 61M51.8286 35L77.8286 61M78.2429 35L104.243 61M104.657 35L130.657 61M131.072 35L157.072 61M157.486 35L183.486 61M183.9 35L209.9 61M210.314 35L236.314 61M236.729 35L262.729 61M263.143 35L289.143 61M289.557 35L315.557 61M315.972 35L341.972 61M342.386 35L368.386 61M368.8 35L394.8 61M395.215 35L421.215 61M421.629 35L447.629 61M448.043 35L474.043 61M474.458 35L500.458 61M500.872 35L526.872 61M527.286 35L553.286 61M553.7 35L579.7 61M580.115 35L606.115 61M606.529 35L632.529 61M632.943 35L658.943 61M659.358 35L685.358 61M685.772 35L711.772 61M712.186 35L738.186 61M738.601 35L764.601 61M765.015 35L791.015 61M791.429 35L817.429 61M817.844 35L843.844 61M844.258 35L870.258 61M870.672 35L896.672 61M897.086 35L923.086 61M923.5 35L949.5 61M949.914 35L975.914 61M976.328 35L1002.33 61M1002.74 35L1028.74 61M1029.16 35L1055.16 61M1055.57 35L1081.57 61M1081.98 35L1107.98 61M1108.4 35L1134.4 61M1134.81 35L1160.81 61M1161.23 35L1187.23 61M1187.64 35L1213.64 61M1214.05 35L1240.05 61M1240.47 35L1266.47 61M1266.88 35L1292.88 61M1293.3 35L1319.3 61M1319.71 35L1345.71 61M1346.12 35L1372.12 61M1372.54 35L1398.54 61M1398.95 35L1424.95 61M1425.37 35L1451.37 61M1451.78 35L1477.78 61M1478.2 35L1504.2 61M1504.61 35L1530.61 61M1531.02 35L1557.02 61M1557.44 35L1583.44 61M1583.85 35L1609.85 61M1610.27 35L1636.27 61M1636.68 35L1662.68 61M1663.09 35L1689.09 61M1689.51 35L1715.51 61M1715.92 35L1741.92 61M1742.34 35L1768.34 61M1768.75 35L1794.75 61M1795.16 35L1821.16 61M1821.58 35L1847.58 61M1847.99 35L1873.99 61M1874.41 35L1900.41 61M1900.82 35L1926.82 61" stroke="#B3000C" stroke-width="4" stroke-linecap="round"/>
</g>
<defs>
<clipPath id="clip0_19_5688">
<rect width="1920" height="64" fill="white"/>
</clipPath>
</defs>
</svg>
